M48
;DRILL file {KiCad 4.0.6} date 12/19/17 11:22:31
;FORMAT={-:-/ absolute / metric / decimal}
FMAT,2
METRIC,TZ
T1C0.400
T2C0.800
T3C0.900
T4C1.000
T5C1.097
T6C1.200
T7C1.300
T8C3.000
%
G90
G05
M71
T1
X129.5Y-97.
X132.Y-88.
X132.5Y-94.
X138.Y-87.5
X140.5Y-86.
X157.Y-94.
X167.5Y-94.
T2
X74.27Y-98.26
X74.27Y-105.88
X76.81Y-98.26
X76.81Y-105.88
X79.35Y-98.26
X79.35Y-105.88
X81.89Y-98.26
X81.89Y-105.88
X84.43Y-98.26
X84.43Y-105.88
X86.97Y-98.26
X86.97Y-105.88
X89.51Y-98.26
X89.51Y-105.88
X92.05Y-98.26
X92.05Y-105.88
X94.59Y-98.26
X94.59Y-105.88
X100.52Y-98.26
X100.52Y-105.88
X103.06Y-98.26
X103.06Y-105.88
X105.6Y-98.26
X105.6Y-105.88
X108.14Y-98.26
X108.14Y-105.88
X110.68Y-98.26
X110.68Y-105.88
X113.22Y-98.26
X113.22Y-105.88
X115.76Y-98.26
X115.76Y-105.88
X118.3Y-98.26
X118.3Y-105.88
X120.84Y-98.26
X120.84Y-105.88
X124.66Y-83.3
X124.66Y-90.92
X127.2Y-71.87
X127.2Y-79.49
X127.2Y-83.3
X127.2Y-90.92
X129.74Y-71.87
X129.74Y-79.49
X129.74Y-83.3
X129.74Y-90.92
X132.28Y-71.87
X132.28Y-79.49
X132.28Y-83.3
X132.28Y-90.92
X134.82Y-71.87
X134.82Y-79.49
X134.82Y-83.3
X134.82Y-90.92
X137.36Y-71.87
X137.36Y-79.49
X137.36Y-83.3
X137.36Y-90.92
X139.9Y-71.87
X139.9Y-79.49
X139.9Y-83.3
X139.9Y-90.92
X142.44Y-71.87
X142.44Y-79.49
X142.44Y-83.3
X142.44Y-90.92
X144.98Y-71.87
X144.98Y-79.49
X147.52Y-71.87
X147.52Y-79.49
X152.Y-83.38
X152.Y-91.
X154.5Y-71.88
X154.5Y-79.5
X154.54Y-83.38
X154.54Y-91.
X157.04Y-71.88
X157.04Y-79.5
X157.08Y-83.38
X157.08Y-91.
X159.58Y-71.88
X159.58Y-79.5
X159.62Y-83.38
X159.62Y-91.
X162.12Y-71.88
X162.12Y-79.5
X162.16Y-83.38
X162.16Y-91.
X164.66Y-71.88
X164.66Y-79.5
X164.7Y-83.38
X164.7Y-91.
X167.2Y-71.88
X167.2Y-79.5
X167.24Y-83.38
X167.24Y-91.
X169.74Y-71.88
X169.74Y-79.5
X169.78Y-83.38
X169.78Y-91.
X172.28Y-71.88
X172.28Y-79.5
X174.82Y-71.88
X174.82Y-79.5
T3
X126.Y-113.5
X126.Y-120.
X126.03Y-116.7
X133.62Y-113.5
X133.62Y-120.
X133.65Y-116.7
X153.35Y-116.725
X153.38Y-113.5
X153.38Y-120.
X160.97Y-116.725
X161.Y-113.5
X161.Y-120.
T4
X127.Y-97.
X132.Y-97.
X137.Y-97.
X142.Y-97.
X149.5Y-97.
X149.5Y-99.
X159.Y-97.
X159.Y-99.
T5
X74.27Y-62.7
X74.27Y-114.77
X76.81Y-62.7
X76.81Y-114.77
X79.35Y-62.7
X79.35Y-114.77
X81.89Y-62.7
X81.89Y-114.77
X84.43Y-62.7
X84.43Y-114.77
X86.97Y-62.7
X86.97Y-114.77
X89.51Y-62.7
X89.51Y-114.77
X92.05Y-62.7
X92.05Y-114.77
X100.52Y-62.7
X100.52Y-114.77
X103.06Y-62.7
X103.06Y-114.77
X105.6Y-62.7
X105.6Y-114.77
X108.14Y-62.7
X108.14Y-114.77
X110.68Y-62.7
X110.68Y-114.77
X113.22Y-62.7
X113.22Y-114.77
X115.76Y-62.7
X115.76Y-114.77
X118.3Y-62.7
X118.3Y-114.77
X127.22Y-62.7
X129.76Y-62.7
X132.3Y-62.7
X134.84Y-62.7
X137.38Y-62.7
X139.92Y-62.7
X142.46Y-62.7
X145.Y-62.7
X154.72Y-62.7
X157.26Y-62.7
X159.8Y-62.7
X162.34Y-62.7
X164.88Y-62.7
X167.42Y-62.7
X169.96Y-62.7
X172.5Y-62.7
X173.Y-94.88
X173.Y-97.42
X173.Y-99.96
X173.Y-102.5
T6
X70.55Y-71.35
X70.55Y-74.85
X74.27Y-84.29
X74.27Y-89.37
X76.81Y-71.59
X76.81Y-76.67
X79.35Y-84.29
X79.35Y-89.37
X81.89Y-71.59
X81.89Y-76.67
X84.43Y-84.29
X84.43Y-89.37
X86.97Y-71.59
X86.97Y-76.67
X89.51Y-84.29
X89.51Y-89.37
X92.05Y-71.59
X92.05Y-76.67
X100.5Y-84.3
X100.5Y-89.38
X103.06Y-71.59
X103.06Y-76.67
X105.6Y-84.29
X105.6Y-89.37
X108.14Y-71.59
X108.14Y-76.67
X110.68Y-84.29
X110.68Y-89.37
X113.22Y-71.59
X113.22Y-76.67
X115.76Y-84.29
X115.76Y-89.37
X118.3Y-71.59
X118.3Y-76.67
X154.92Y-106.5
X157.46Y-106.5
X160.Y-106.5
T7
X127.Y-106.5
X129.54Y-106.5
X132.08Y-106.5
T8
X69.5Y-57.5
X69.5Y-118.
X177.5Y-57.5
X177.5Y-118.
T4
X142.Y-108.G85X144.Y-108.
G05
X142.Y-113.G85X144.Y-113.
G05
X148.Y-111.5G85X148.Y-109.5
G05
T0
M30
