G04 #@! TF.FileFunction,Legend,Top*
%FSLAX46Y46*%
G04 Gerber Fmt 4.6, Leading zero omitted, Abs format (unit mm)*
G04 Created by KiCad (PCBNEW 4.0.6) date 12/19/17 11:22:06*
%MOMM*%
%LPD*%
G01*
G04 APERTURE LIST*
%ADD10C,0.100000*%
%ADD11C,0.200000*%
%ADD12C,0.120000*%
%ADD13C,0.150000*%
G04 APERTURE END LIST*
D10*
D11*
X165700001Y-108542857D02*
X165700001Y-107342857D01*
X166157144Y-107342857D01*
X166271430Y-107400000D01*
X166328573Y-107457143D01*
X166385716Y-107571429D01*
X166385716Y-107742857D01*
X166328573Y-107857143D01*
X166271430Y-107914286D01*
X166157144Y-107971429D01*
X165700001Y-107971429D01*
X166900001Y-108542857D02*
X166900001Y-107742857D01*
X166900001Y-107971429D02*
X166957144Y-107857143D01*
X167014287Y-107800000D01*
X167128573Y-107742857D01*
X167242858Y-107742857D01*
X167814287Y-108542857D02*
X167700001Y-108485714D01*
X167642858Y-108428571D01*
X167585715Y-108314286D01*
X167585715Y-107971429D01*
X167642858Y-107857143D01*
X167700001Y-107800000D01*
X167814287Y-107742857D01*
X167985715Y-107742857D01*
X168100001Y-107800000D01*
X168157144Y-107857143D01*
X168214287Y-107971429D01*
X168214287Y-108314286D01*
X168157144Y-108428571D01*
X168100001Y-108485714D01*
X167985715Y-108542857D01*
X167814287Y-108542857D01*
X169242858Y-108542857D02*
X169242858Y-107342857D01*
X169242858Y-108485714D02*
X169128572Y-108542857D01*
X168900001Y-108542857D01*
X168785715Y-108485714D01*
X168728572Y-108428571D01*
X168671429Y-108314286D01*
X168671429Y-107971429D01*
X168728572Y-107857143D01*
X168785715Y-107800000D01*
X168900001Y-107742857D01*
X169128572Y-107742857D01*
X169242858Y-107800000D01*
X170328572Y-107742857D02*
X170328572Y-108542857D01*
X169814286Y-107742857D02*
X169814286Y-108371429D01*
X169871429Y-108485714D01*
X169985715Y-108542857D01*
X170157143Y-108542857D01*
X170271429Y-108485714D01*
X170328572Y-108428571D01*
X171414286Y-108485714D02*
X171300000Y-108542857D01*
X171071429Y-108542857D01*
X170957143Y-108485714D01*
X170900000Y-108428571D01*
X170842857Y-108314286D01*
X170842857Y-107971429D01*
X170900000Y-107857143D01*
X170957143Y-107800000D01*
X171071429Y-107742857D01*
X171300000Y-107742857D01*
X171414286Y-107800000D01*
X172385714Y-108485714D02*
X172271428Y-108542857D01*
X172042857Y-108542857D01*
X171928571Y-108485714D01*
X171871428Y-108371429D01*
X171871428Y-107914286D01*
X171928571Y-107800000D01*
X172042857Y-107742857D01*
X172271428Y-107742857D01*
X172385714Y-107800000D01*
X172442857Y-107914286D01*
X172442857Y-108028571D01*
X171871428Y-108142857D01*
X173471428Y-108542857D02*
X173471428Y-107342857D01*
X173471428Y-108485714D02*
X173357142Y-108542857D01*
X173128571Y-108542857D01*
X173014285Y-108485714D01*
X172957142Y-108428571D01*
X172899999Y-108314286D01*
X172899999Y-107971429D01*
X172957142Y-107857143D01*
X173014285Y-107800000D01*
X173128571Y-107742857D01*
X173357142Y-107742857D01*
X173471428Y-107800000D01*
X174957142Y-108542857D02*
X174957142Y-107342857D01*
X174957142Y-107800000D02*
X175071428Y-107742857D01*
X175299999Y-107742857D01*
X175414285Y-107800000D01*
X175471428Y-107857143D01*
X175528571Y-107971429D01*
X175528571Y-108314286D01*
X175471428Y-108428571D01*
X175414285Y-108485714D01*
X175299999Y-108542857D01*
X175071428Y-108542857D01*
X174957142Y-108485714D01*
X175928571Y-107742857D02*
X176214285Y-108542857D01*
X176499999Y-107742857D02*
X176214285Y-108542857D01*
X176099999Y-108828571D01*
X176042856Y-108885714D01*
X175928571Y-108942857D01*
X165357144Y-110542857D02*
X165357144Y-109342857D01*
X166042859Y-110542857D01*
X166042859Y-109342857D01*
X167128573Y-110542857D02*
X167128573Y-109914286D01*
X167071430Y-109800000D01*
X166957144Y-109742857D01*
X166728573Y-109742857D01*
X166614287Y-109800000D01*
X167128573Y-110485714D02*
X167014287Y-110542857D01*
X166728573Y-110542857D01*
X166614287Y-110485714D01*
X166557144Y-110371429D01*
X166557144Y-110257143D01*
X166614287Y-110142857D01*
X166728573Y-110085714D01*
X167014287Y-110085714D01*
X167128573Y-110028571D01*
X167528573Y-109742857D02*
X167985716Y-109742857D01*
X167700001Y-109342857D02*
X167700001Y-110371429D01*
X167757144Y-110485714D01*
X167871430Y-110542857D01*
X167985716Y-110542857D01*
X168385715Y-110542857D02*
X168385715Y-109342857D01*
X168900001Y-110542857D02*
X168900001Y-109914286D01*
X168842858Y-109800000D01*
X168728572Y-109742857D01*
X168557144Y-109742857D01*
X168442858Y-109800000D01*
X168385715Y-109857143D01*
X169985715Y-110542857D02*
X169985715Y-109914286D01*
X169928572Y-109800000D01*
X169814286Y-109742857D01*
X169585715Y-109742857D01*
X169471429Y-109800000D01*
X169985715Y-110485714D02*
X169871429Y-110542857D01*
X169585715Y-110542857D01*
X169471429Y-110485714D01*
X169414286Y-110371429D01*
X169414286Y-110257143D01*
X169471429Y-110142857D01*
X169585715Y-110085714D01*
X169871429Y-110085714D01*
X169985715Y-110028571D01*
X170557143Y-109742857D02*
X170557143Y-110542857D01*
X170557143Y-109857143D02*
X170614286Y-109800000D01*
X170728572Y-109742857D01*
X170900000Y-109742857D01*
X171014286Y-109800000D01*
X171071429Y-109914286D01*
X171071429Y-110542857D01*
X172557143Y-110542857D02*
X172557143Y-109342857D01*
X172842858Y-109342857D01*
X173014286Y-109400000D01*
X173128572Y-109514286D01*
X173185715Y-109628571D01*
X173242858Y-109857143D01*
X173242858Y-110028571D01*
X173185715Y-110257143D01*
X173128572Y-110371429D01*
X173014286Y-110485714D01*
X172842858Y-110542857D01*
X172557143Y-110542857D01*
X173928572Y-110542857D02*
X173814286Y-110485714D01*
X173757143Y-110428571D01*
X173700000Y-110314286D01*
X173700000Y-109971429D01*
X173757143Y-109857143D01*
X173814286Y-109800000D01*
X173928572Y-109742857D01*
X174100000Y-109742857D01*
X174214286Y-109800000D01*
X174271429Y-109857143D01*
X174328572Y-109971429D01*
X174328572Y-110314286D01*
X174271429Y-110428571D01*
X174214286Y-110485714D01*
X174100000Y-110542857D01*
X173928572Y-110542857D01*
X175014286Y-110542857D02*
X174900000Y-110485714D01*
X174842857Y-110428571D01*
X174785714Y-110314286D01*
X174785714Y-109971429D01*
X174842857Y-109857143D01*
X174900000Y-109800000D01*
X175014286Y-109742857D01*
X175185714Y-109742857D01*
X175300000Y-109800000D01*
X175357143Y-109857143D01*
X175414286Y-109971429D01*
X175414286Y-110314286D01*
X175357143Y-110428571D01*
X175300000Y-110485714D01*
X175185714Y-110542857D01*
X175014286Y-110542857D01*
X175928571Y-110542857D02*
X175928571Y-109742857D01*
X175928571Y-109971429D02*
X175985714Y-109857143D01*
X176042857Y-109800000D01*
X176157143Y-109742857D01*
X176271428Y-109742857D01*
X176842857Y-110542857D02*
X176728571Y-110485714D01*
X176671428Y-110371429D01*
X176671428Y-109342857D01*
X177185714Y-109742857D02*
X177471428Y-110542857D01*
X177757142Y-109742857D02*
X177471428Y-110542857D01*
X177357142Y-110828571D01*
X177299999Y-110885714D01*
X177185714Y-110942857D01*
X165871430Y-111914286D02*
X166042859Y-111971429D01*
X166100002Y-112028571D01*
X166157145Y-112142857D01*
X166157145Y-112314286D01*
X166100002Y-112428571D01*
X166042859Y-112485714D01*
X165928573Y-112542857D01*
X165471430Y-112542857D01*
X165471430Y-111342857D01*
X165871430Y-111342857D01*
X165985716Y-111400000D01*
X166042859Y-111457143D01*
X166100002Y-111571429D01*
X166100002Y-111685714D01*
X166042859Y-111800000D01*
X165985716Y-111857143D01*
X165871430Y-111914286D01*
X165471430Y-111914286D01*
X167128573Y-112485714D02*
X167014287Y-112542857D01*
X166785716Y-112542857D01*
X166671430Y-112485714D01*
X166614287Y-112371429D01*
X166614287Y-111914286D01*
X166671430Y-111800000D01*
X166785716Y-111742857D01*
X167014287Y-111742857D01*
X167128573Y-111800000D01*
X167185716Y-111914286D01*
X167185716Y-112028571D01*
X166614287Y-112142857D01*
X167528573Y-111742857D02*
X167985716Y-111742857D01*
X167700001Y-111342857D02*
X167700001Y-112371429D01*
X167757144Y-112485714D01*
X167871430Y-112542857D01*
X167985716Y-112542857D01*
X168385715Y-112542857D02*
X168385715Y-111342857D01*
X168900001Y-112542857D02*
X168900001Y-111914286D01*
X168842858Y-111800000D01*
X168728572Y-111742857D01*
X168557144Y-111742857D01*
X168442858Y-111800000D01*
X168385715Y-111857143D01*
X171071430Y-112428571D02*
X171014287Y-112485714D01*
X170842858Y-112542857D01*
X170728572Y-112542857D01*
X170557144Y-112485714D01*
X170442858Y-112371429D01*
X170385715Y-112257143D01*
X170328572Y-112028571D01*
X170328572Y-111857143D01*
X170385715Y-111628571D01*
X170442858Y-111514286D01*
X170557144Y-111400000D01*
X170728572Y-111342857D01*
X170842858Y-111342857D01*
X171014287Y-111400000D01*
X171071430Y-111457143D01*
X171757144Y-112542857D02*
X171642858Y-112485714D01*
X171585715Y-112428571D01*
X171528572Y-112314286D01*
X171528572Y-111971429D01*
X171585715Y-111857143D01*
X171642858Y-111800000D01*
X171757144Y-111742857D01*
X171928572Y-111742857D01*
X172042858Y-111800000D01*
X172100001Y-111857143D01*
X172157144Y-111971429D01*
X172157144Y-112314286D01*
X172100001Y-112428571D01*
X172042858Y-112485714D01*
X171928572Y-112542857D01*
X171757144Y-112542857D01*
X172500001Y-111742857D02*
X172957144Y-111742857D01*
X172671429Y-111342857D02*
X172671429Y-112371429D01*
X172728572Y-112485714D01*
X172842858Y-112542857D01*
X172957144Y-112542857D01*
X173185715Y-111742857D02*
X173642858Y-111742857D01*
X173357143Y-111342857D02*
X173357143Y-112371429D01*
X173414286Y-112485714D01*
X173528572Y-112542857D01*
X173642858Y-112542857D01*
X174500000Y-112485714D02*
X174385714Y-112542857D01*
X174157143Y-112542857D01*
X174042857Y-112485714D01*
X173985714Y-112371429D01*
X173985714Y-111914286D01*
X174042857Y-111800000D01*
X174157143Y-111742857D01*
X174385714Y-111742857D01*
X174500000Y-111800000D01*
X174557143Y-111914286D01*
X174557143Y-112028571D01*
X173985714Y-112142857D01*
X175071428Y-112542857D02*
X175071428Y-111742857D01*
X175071428Y-111971429D02*
X175128571Y-111857143D01*
X175185714Y-111800000D01*
X175300000Y-111742857D01*
X175414285Y-111742857D01*
X176271428Y-112485714D02*
X176157142Y-112542857D01*
X175928571Y-112542857D01*
X175814285Y-112485714D01*
X175757142Y-112371429D01*
X175757142Y-111914286D01*
X175814285Y-111800000D01*
X175928571Y-111742857D01*
X176157142Y-111742857D01*
X176271428Y-111800000D01*
X176328571Y-111914286D01*
X176328571Y-112028571D01*
X175757142Y-112142857D01*
X177014285Y-112542857D02*
X176899999Y-112485714D01*
X176842856Y-112371429D01*
X176842856Y-111342857D01*
X177642856Y-112542857D02*
X177528570Y-112485714D01*
X177471427Y-112371429D01*
X177471427Y-111342857D01*
X165328573Y-114542857D02*
X164928573Y-113971429D01*
X164642858Y-114542857D02*
X164642858Y-113342857D01*
X165100001Y-113342857D01*
X165214287Y-113400000D01*
X165271430Y-113457143D01*
X165328573Y-113571429D01*
X165328573Y-113742857D01*
X165271430Y-113857143D01*
X165214287Y-113914286D01*
X165100001Y-113971429D01*
X164642858Y-113971429D01*
X165842858Y-114542857D02*
X165842858Y-113742857D01*
X165842858Y-113342857D02*
X165785715Y-113400000D01*
X165842858Y-113457143D01*
X165900001Y-113400000D01*
X165842858Y-113342857D01*
X165842858Y-113457143D01*
X166928573Y-114485714D02*
X166814287Y-114542857D01*
X166585716Y-114542857D01*
X166471430Y-114485714D01*
X166414287Y-114428571D01*
X166357144Y-114314286D01*
X166357144Y-113971429D01*
X166414287Y-113857143D01*
X166471430Y-113800000D01*
X166585716Y-113742857D01*
X166814287Y-113742857D01*
X166928573Y-113800000D01*
X167442858Y-114542857D02*
X167442858Y-113342857D01*
X167957144Y-114542857D02*
X167957144Y-113914286D01*
X167900001Y-113800000D01*
X167785715Y-113742857D01*
X167614287Y-113742857D01*
X167500001Y-113800000D01*
X167442858Y-113857143D01*
X169042858Y-114542857D02*
X169042858Y-113914286D01*
X168985715Y-113800000D01*
X168871429Y-113742857D01*
X168642858Y-113742857D01*
X168528572Y-113800000D01*
X169042858Y-114485714D02*
X168928572Y-114542857D01*
X168642858Y-114542857D01*
X168528572Y-114485714D01*
X168471429Y-114371429D01*
X168471429Y-114257143D01*
X168528572Y-114142857D01*
X168642858Y-114085714D01*
X168928572Y-114085714D01*
X169042858Y-114028571D01*
X169614286Y-114542857D02*
X169614286Y-113742857D01*
X169614286Y-113971429D02*
X169671429Y-113857143D01*
X169728572Y-113800000D01*
X169842858Y-113742857D01*
X169957143Y-113742857D01*
X170871429Y-114542857D02*
X170871429Y-113342857D01*
X170871429Y-114485714D02*
X170757143Y-114542857D01*
X170528572Y-114542857D01*
X170414286Y-114485714D01*
X170357143Y-114428571D01*
X170300000Y-114314286D01*
X170300000Y-113971429D01*
X170357143Y-113857143D01*
X170414286Y-113800000D01*
X170528572Y-113742857D01*
X170757143Y-113742857D01*
X170871429Y-113800000D01*
X172985715Y-113400000D02*
X172871429Y-113342857D01*
X172700000Y-113342857D01*
X172528572Y-113400000D01*
X172414286Y-113514286D01*
X172357143Y-113628571D01*
X172300000Y-113857143D01*
X172300000Y-114028571D01*
X172357143Y-114257143D01*
X172414286Y-114371429D01*
X172528572Y-114485714D01*
X172700000Y-114542857D01*
X172814286Y-114542857D01*
X172985715Y-114485714D01*
X173042858Y-114428571D01*
X173042858Y-114028571D01*
X172814286Y-114028571D01*
X173557143Y-114542857D02*
X173557143Y-113742857D01*
X173557143Y-113971429D02*
X173614286Y-113857143D01*
X173671429Y-113800000D01*
X173785715Y-113742857D01*
X173900000Y-113742857D01*
X174814286Y-114542857D02*
X174814286Y-113914286D01*
X174757143Y-113800000D01*
X174642857Y-113742857D01*
X174414286Y-113742857D01*
X174300000Y-113800000D01*
X174814286Y-114485714D02*
X174700000Y-114542857D01*
X174414286Y-114542857D01*
X174300000Y-114485714D01*
X174242857Y-114371429D01*
X174242857Y-114257143D01*
X174300000Y-114142857D01*
X174414286Y-114085714D01*
X174700000Y-114085714D01*
X174814286Y-114028571D01*
X175214286Y-113742857D02*
X175671429Y-113742857D01*
X175385714Y-114542857D02*
X175385714Y-113514286D01*
X175442857Y-113400000D01*
X175557143Y-113342857D01*
X175671429Y-113342857D01*
X175900000Y-113742857D02*
X176357143Y-113742857D01*
X176071428Y-113342857D02*
X176071428Y-114371429D01*
X176128571Y-114485714D01*
X176242857Y-114542857D01*
X176357143Y-114542857D01*
X176928571Y-114542857D02*
X176814285Y-114485714D01*
X176757142Y-114428571D01*
X176699999Y-114314286D01*
X176699999Y-113971429D01*
X176757142Y-113857143D01*
X176814285Y-113800000D01*
X176928571Y-113742857D01*
X177099999Y-113742857D01*
X177214285Y-113800000D01*
X177271428Y-113857143D01*
X177328571Y-113971429D01*
X177328571Y-114314286D01*
X177271428Y-114428571D01*
X177214285Y-114485714D01*
X177099999Y-114542857D01*
X176928571Y-114542857D01*
X177842856Y-113742857D02*
X177842856Y-114542857D01*
X177842856Y-113857143D02*
X177899999Y-113800000D01*
X178014285Y-113742857D01*
X178185713Y-113742857D01*
X178299999Y-113800000D01*
X178357142Y-113914286D01*
X178357142Y-114542857D01*
D10*
X65000000Y-117500000D02*
X65000000Y-118000000D01*
X65000000Y-57500000D02*
X65000000Y-117500000D01*
X69500000Y-53000000D02*
G75*
G03X65000000Y-57500000I0J-4500000D01*
G01*
X65000000Y-118000000D02*
G75*
G03X69500000Y-122500000I4500000J0D01*
G01*
X177500000Y-122500000D02*
X69500000Y-122500000D01*
X177500000Y-53000000D02*
X69500000Y-53000000D01*
X177500000Y-122500000D02*
G75*
G03X182000000Y-118000000I0J4500000D01*
G01*
X182000000Y-57500000D02*
X182000000Y-118000000D01*
X182000000Y-57500000D02*
G75*
G03X177500000Y-53000000I-4500000J0D01*
G01*
D12*
X150670000Y-86190000D02*
G75*
G02X150670000Y-88190000I0J-1000000D01*
G01*
X150670000Y-88190000D02*
X150670000Y-89840000D01*
X150670000Y-89840000D02*
X171110000Y-89840000D01*
X171110000Y-89840000D02*
X171110000Y-84540000D01*
X171110000Y-84540000D02*
X150670000Y-84540000D01*
X150670000Y-84540000D02*
X150670000Y-86190000D01*
X107460000Y-84290000D02*
G75*
G03X107460000Y-84290000I-1860000J0D01*
G01*
X105600000Y-86150000D02*
X105600000Y-87870000D01*
X125870000Y-74680000D02*
G75*
G02X125870000Y-76680000I0J-1000000D01*
G01*
X125870000Y-76680000D02*
X125870000Y-78330000D01*
X125870000Y-78330000D02*
X148850000Y-78330000D01*
X148850000Y-78330000D02*
X148850000Y-73030000D01*
X148850000Y-73030000D02*
X125870000Y-73030000D01*
X125870000Y-73030000D02*
X125870000Y-74680000D01*
X153170000Y-74690000D02*
G75*
G02X153170000Y-76690000I0J-1000000D01*
G01*
X153170000Y-76690000D02*
X153170000Y-78340000D01*
X153170000Y-78340000D02*
X176150000Y-78340000D01*
X176150000Y-78340000D02*
X176150000Y-73040000D01*
X176150000Y-73040000D02*
X153170000Y-73040000D01*
X153170000Y-73040000D02*
X153170000Y-74690000D01*
X123330000Y-86110000D02*
G75*
G02X123330000Y-88110000I0J-1000000D01*
G01*
X123330000Y-88110000D02*
X123330000Y-89760000D01*
X123330000Y-89760000D02*
X143770000Y-89760000D01*
X143770000Y-89760000D02*
X143770000Y-84460000D01*
X143770000Y-84460000D02*
X123330000Y-84460000D01*
X123330000Y-84460000D02*
X123330000Y-86110000D01*
X72940000Y-101070000D02*
G75*
G02X72940000Y-103070000I0J-1000000D01*
G01*
X72940000Y-103070000D02*
X72940000Y-104720000D01*
X72940000Y-104720000D02*
X95920000Y-104720000D01*
X95920000Y-104720000D02*
X95920000Y-99420000D01*
X95920000Y-99420000D02*
X72940000Y-99420000D01*
X72940000Y-99420000D02*
X72940000Y-101070000D01*
X99190000Y-101070000D02*
G75*
G02X99190000Y-103070000I0J-1000000D01*
G01*
X99190000Y-103070000D02*
X99190000Y-104720000D01*
X99190000Y-104720000D02*
X122170000Y-104720000D01*
X122170000Y-104720000D02*
X122170000Y-99420000D01*
X122170000Y-99420000D02*
X99190000Y-99420000D01*
X99190000Y-99420000D02*
X99190000Y-101070000D01*
D13*
X119808760Y-111671200D02*
X99011240Y-111671200D01*
X99011240Y-112069980D02*
X119808760Y-112069980D01*
X119808760Y-117868800D02*
X99011240Y-117868800D01*
X99011240Y-117370960D02*
X119808760Y-117370960D01*
X109410000Y-117370960D02*
X109410000Y-117868800D01*
X117009680Y-117370960D02*
X117009680Y-117868800D01*
X114510320Y-117370960D02*
X114510320Y-117868800D01*
X111911900Y-117370960D02*
X111911900Y-117868800D01*
X106910640Y-117370960D02*
X106910640Y-117868800D01*
X104312220Y-117370960D02*
X104312220Y-117868800D01*
X99211900Y-117868800D02*
X99211900Y-117370960D01*
X119608100Y-117370960D02*
X119608100Y-117868800D01*
X101815400Y-117868800D02*
X101815400Y-117370960D01*
X119806220Y-117868800D02*
X119806220Y-111671200D01*
X99013780Y-111671200D02*
X99013780Y-117868800D01*
X93558760Y-111671200D02*
X72761240Y-111671200D01*
X72761240Y-112069980D02*
X93558760Y-112069980D01*
X93558760Y-117868800D02*
X72761240Y-117868800D01*
X72761240Y-117370960D02*
X93558760Y-117370960D01*
X83160000Y-117370960D02*
X83160000Y-117868800D01*
X90759680Y-117370960D02*
X90759680Y-117868800D01*
X88260320Y-117370960D02*
X88260320Y-117868800D01*
X85661900Y-117370960D02*
X85661900Y-117868800D01*
X80660640Y-117370960D02*
X80660640Y-117868800D01*
X78062220Y-117370960D02*
X78062220Y-117868800D01*
X72961900Y-117868800D02*
X72961900Y-117370960D01*
X93358100Y-117370960D02*
X93358100Y-117868800D01*
X75565400Y-117868800D02*
X75565400Y-117370960D01*
X93556220Y-117868800D02*
X93556220Y-111671200D01*
X72763780Y-111671200D02*
X72763780Y-117868800D01*
X99011240Y-65798800D02*
X119808760Y-65798800D01*
X119808760Y-65400020D02*
X99011240Y-65400020D01*
X99011240Y-59601200D02*
X119808760Y-59601200D01*
X119808760Y-60099040D02*
X99011240Y-60099040D01*
X109410000Y-60099040D02*
X109410000Y-59601200D01*
X101810320Y-60099040D02*
X101810320Y-59601200D01*
X104309680Y-60099040D02*
X104309680Y-59601200D01*
X106908100Y-60099040D02*
X106908100Y-59601200D01*
X111909360Y-60099040D02*
X111909360Y-59601200D01*
X114507780Y-60099040D02*
X114507780Y-59601200D01*
X119608100Y-59601200D02*
X119608100Y-60099040D01*
X99211900Y-60099040D02*
X99211900Y-59601200D01*
X117004600Y-59601200D02*
X117004600Y-60099040D01*
X99013780Y-59601200D02*
X99013780Y-65798800D01*
X119806220Y-65798800D02*
X119806220Y-59601200D01*
X72761240Y-65798800D02*
X93558760Y-65798800D01*
X93558760Y-65400020D02*
X72761240Y-65400020D01*
X72761240Y-59601200D02*
X93558760Y-59601200D01*
X93558760Y-60099040D02*
X72761240Y-60099040D01*
X83160000Y-60099040D02*
X83160000Y-59601200D01*
X75560320Y-60099040D02*
X75560320Y-59601200D01*
X78059680Y-60099040D02*
X78059680Y-59601200D01*
X80658100Y-60099040D02*
X80658100Y-59601200D01*
X85659360Y-60099040D02*
X85659360Y-59601200D01*
X88257780Y-60099040D02*
X88257780Y-59601200D01*
X93358100Y-59601200D02*
X93358100Y-60099040D01*
X72961900Y-60099040D02*
X72961900Y-59601200D01*
X90754600Y-59601200D02*
X90754600Y-60099040D01*
X72763780Y-59601200D02*
X72763780Y-65798800D01*
X93556220Y-65798800D02*
X93556220Y-59601200D01*
X153211240Y-65798800D02*
X174008760Y-65798800D01*
X174008760Y-65400020D02*
X153211240Y-65400020D01*
X153211240Y-59601200D02*
X174008760Y-59601200D01*
X174008760Y-60099040D02*
X153211240Y-60099040D01*
X163610000Y-60099040D02*
X163610000Y-59601200D01*
X156010320Y-60099040D02*
X156010320Y-59601200D01*
X158509680Y-60099040D02*
X158509680Y-59601200D01*
X161108100Y-60099040D02*
X161108100Y-59601200D01*
X166109360Y-60099040D02*
X166109360Y-59601200D01*
X168707780Y-60099040D02*
X168707780Y-59601200D01*
X173808100Y-59601200D02*
X173808100Y-60099040D01*
X153411900Y-60099040D02*
X153411900Y-59601200D01*
X171204600Y-59601200D02*
X171204600Y-60099040D01*
X153213780Y-59601200D02*
X153213780Y-65798800D01*
X174006220Y-65798800D02*
X174006220Y-59601200D01*
X125711240Y-65798800D02*
X146508760Y-65798800D01*
X146508760Y-65400020D02*
X125711240Y-65400020D01*
X125711240Y-59601200D02*
X146508760Y-59601200D01*
X146508760Y-60099040D02*
X125711240Y-60099040D01*
X136110000Y-60099040D02*
X136110000Y-59601200D01*
X128510320Y-60099040D02*
X128510320Y-59601200D01*
X131009680Y-60099040D02*
X131009680Y-59601200D01*
X133608100Y-60099040D02*
X133608100Y-59601200D01*
X138609360Y-60099040D02*
X138609360Y-59601200D01*
X141207780Y-60099040D02*
X141207780Y-59601200D01*
X146308100Y-59601200D02*
X146308100Y-60099040D01*
X125911900Y-60099040D02*
X125911900Y-59601200D01*
X143704600Y-59601200D02*
X143704600Y-60099040D01*
X125713780Y-59601200D02*
X125713780Y-65798800D01*
X146506220Y-65798800D02*
X146506220Y-59601200D01*
X169901200Y-93389020D02*
X169901200Y-103990980D01*
X170299980Y-103990980D02*
X170299980Y-93389020D01*
X175600960Y-103990980D02*
X175600960Y-93389020D01*
X176098800Y-93389020D02*
X176098800Y-103990980D01*
X175600960Y-96193180D02*
X176098800Y-96193180D01*
X175600960Y-98690000D02*
X176098800Y-98690000D01*
X176098800Y-103787780D02*
X175600960Y-103787780D01*
X175600960Y-93589680D02*
X176098800Y-93589680D01*
X176098800Y-101186820D02*
X175600960Y-101186820D01*
X176098800Y-93391560D02*
X169901200Y-93391560D01*
X169901200Y-103985900D02*
X176098800Y-103985900D01*
D12*
X127950000Y-112640000D02*
X127950000Y-114360000D01*
X127950000Y-114360000D02*
X131670000Y-114360000D01*
X131670000Y-114360000D02*
X131670000Y-112640000D01*
X131670000Y-112640000D02*
X127950000Y-112640000D01*
X126880000Y-113500000D02*
X127950000Y-113500000D01*
X132740000Y-113500000D02*
X131670000Y-113500000D01*
X131700000Y-117560000D02*
X131700000Y-115840000D01*
X131700000Y-115840000D02*
X127980000Y-115840000D01*
X127980000Y-115840000D02*
X127980000Y-117560000D01*
X127980000Y-117560000D02*
X131700000Y-117560000D01*
X132770000Y-116700000D02*
X131700000Y-116700000D01*
X126910000Y-116700000D02*
X127980000Y-116700000D01*
X127950000Y-119140000D02*
X127950000Y-120860000D01*
X127950000Y-120860000D02*
X131670000Y-120860000D01*
X131670000Y-120860000D02*
X131670000Y-119140000D01*
X131670000Y-119140000D02*
X127950000Y-119140000D01*
X126880000Y-120000000D02*
X127950000Y-120000000D01*
X132740000Y-120000000D02*
X131670000Y-120000000D01*
X159050000Y-114360000D02*
X159050000Y-112640000D01*
X159050000Y-112640000D02*
X155330000Y-112640000D01*
X155330000Y-112640000D02*
X155330000Y-114360000D01*
X155330000Y-114360000D02*
X159050000Y-114360000D01*
X160120000Y-113500000D02*
X159050000Y-113500000D01*
X154260000Y-113500000D02*
X155330000Y-113500000D01*
X155300000Y-115865000D02*
X155300000Y-117585000D01*
X155300000Y-117585000D02*
X159020000Y-117585000D01*
X159020000Y-117585000D02*
X159020000Y-115865000D01*
X159020000Y-115865000D02*
X155300000Y-115865000D01*
X154230000Y-116725000D02*
X155300000Y-116725000D01*
X160090000Y-116725000D02*
X159020000Y-116725000D01*
X159050000Y-120860000D02*
X159050000Y-119140000D01*
X159050000Y-119140000D02*
X155330000Y-119140000D01*
X155330000Y-119140000D02*
X155330000Y-120860000D01*
X155330000Y-120860000D02*
X159050000Y-120860000D01*
X160120000Y-120000000D02*
X159050000Y-120000000D01*
X154260000Y-120000000D02*
X155330000Y-120000000D01*
X125630000Y-103480000D02*
X125630000Y-109480000D01*
X125630000Y-109480000D02*
X133450000Y-109480000D01*
X133450000Y-109480000D02*
X133450000Y-103480000D01*
X133450000Y-103480000D02*
X125630000Y-103480000D01*
X127000000Y-109480000D02*
X127000000Y-108480000D01*
X127000000Y-108480000D02*
X132080000Y-108480000D01*
X132080000Y-108480000D02*
X132080000Y-109480000D01*
X127000000Y-108480000D02*
X127250000Y-108050000D01*
X127250000Y-108050000D02*
X131830000Y-108050000D01*
X131830000Y-108050000D02*
X132080000Y-108480000D01*
X127250000Y-109480000D02*
X127250000Y-108480000D01*
X131830000Y-109480000D02*
X131830000Y-108480000D01*
X126200000Y-103480000D02*
X126200000Y-104100000D01*
X126200000Y-104100000D02*
X127800000Y-104100000D01*
X127800000Y-104100000D02*
X127800000Y-103480000D01*
X128740000Y-103480000D02*
X128740000Y-104100000D01*
X128740000Y-104100000D02*
X130340000Y-104100000D01*
X130340000Y-104100000D02*
X130340000Y-103480000D01*
X131280000Y-103480000D02*
X131280000Y-104100000D01*
X131280000Y-104100000D02*
X132880000Y-104100000D01*
X132880000Y-104100000D02*
X132880000Y-103480000D01*
X161370000Y-109520000D02*
X161370000Y-103520000D01*
X161370000Y-103520000D02*
X153550000Y-103520000D01*
X153550000Y-103520000D02*
X153550000Y-109520000D01*
X153550000Y-109520000D02*
X161370000Y-109520000D01*
X160000000Y-103520000D02*
X160000000Y-104520000D01*
X160000000Y-104520000D02*
X154920000Y-104520000D01*
X154920000Y-104520000D02*
X154920000Y-103520000D01*
X160000000Y-104520000D02*
X159750000Y-104950000D01*
X159750000Y-104950000D02*
X155170000Y-104950000D01*
X155170000Y-104950000D02*
X154920000Y-104520000D01*
X159750000Y-103520000D02*
X159750000Y-104520000D01*
X155170000Y-103520000D02*
X155170000Y-104520000D01*
X160800000Y-109520000D02*
X160800000Y-108900000D01*
X160800000Y-108900000D02*
X159200000Y-108900000D01*
X159200000Y-108900000D02*
X159200000Y-109520000D01*
X158260000Y-109520000D02*
X158260000Y-108900000D01*
X158260000Y-108900000D02*
X156660000Y-108900000D01*
X156660000Y-108900000D02*
X156660000Y-109520000D01*
X155720000Y-109520000D02*
X155720000Y-108900000D01*
X155720000Y-108900000D02*
X154120000Y-108900000D01*
X154120000Y-108900000D02*
X154120000Y-109520000D01*
X133310000Y-98310000D02*
X125690000Y-98310000D01*
X133310000Y-95690000D02*
X125690000Y-95690000D01*
X133310000Y-98310000D02*
X133310000Y-95690000D01*
X125690000Y-98310000D02*
X125690000Y-95690000D01*
X135690000Y-95690000D02*
X143310000Y-95690000D01*
X135690000Y-98310000D02*
X143310000Y-98310000D01*
X135690000Y-95690000D02*
X135690000Y-98310000D01*
X143310000Y-95690000D02*
X143310000Y-98310000D01*
X160179723Y-100305722D02*
G75*
G03X160180000Y-95694420I-1179723J2305722D01*
G01*
X157820277Y-100305722D02*
G75*
G02X157820000Y-95694420I1179723J2305722D01*
G01*
X157820277Y-100305722D02*
G75*
G03X160180000Y-100305580I1179723J2305722D01*
G01*
X161550000Y-98000000D02*
X156450000Y-98000000D01*
X161550000Y-98040000D02*
X159980000Y-98040000D01*
X158020000Y-98040000D02*
X156450000Y-98040000D01*
X161549000Y-98080000D02*
X159980000Y-98080000D01*
X158020000Y-98080000D02*
X156451000Y-98080000D01*
X161548000Y-98120000D02*
X159980000Y-98120000D01*
X158020000Y-98120000D02*
X156452000Y-98120000D01*
X161546000Y-98160000D02*
X159980000Y-98160000D01*
X158020000Y-98160000D02*
X156454000Y-98160000D01*
X161543000Y-98200000D02*
X159980000Y-98200000D01*
X158020000Y-98200000D02*
X156457000Y-98200000D01*
X161539000Y-98240000D02*
X159980000Y-98240000D01*
X158020000Y-98240000D02*
X156461000Y-98240000D01*
X161535000Y-98280000D02*
X159980000Y-98280000D01*
X158020000Y-98280000D02*
X156465000Y-98280000D01*
X161531000Y-98320000D02*
X159980000Y-98320000D01*
X158020000Y-98320000D02*
X156469000Y-98320000D01*
X161525000Y-98360000D02*
X159980000Y-98360000D01*
X158020000Y-98360000D02*
X156475000Y-98360000D01*
X161519000Y-98400000D02*
X159980000Y-98400000D01*
X158020000Y-98400000D02*
X156481000Y-98400000D01*
X161513000Y-98440000D02*
X159980000Y-98440000D01*
X158020000Y-98440000D02*
X156487000Y-98440000D01*
X161506000Y-98480000D02*
X159980000Y-98480000D01*
X158020000Y-98480000D02*
X156494000Y-98480000D01*
X161498000Y-98520000D02*
X159980000Y-98520000D01*
X158020000Y-98520000D02*
X156502000Y-98520000D01*
X161489000Y-98560000D02*
X159980000Y-98560000D01*
X158020000Y-98560000D02*
X156511000Y-98560000D01*
X161480000Y-98600000D02*
X159980000Y-98600000D01*
X158020000Y-98600000D02*
X156520000Y-98600000D01*
X161470000Y-98640000D02*
X159980000Y-98640000D01*
X158020000Y-98640000D02*
X156530000Y-98640000D01*
X161460000Y-98680000D02*
X159980000Y-98680000D01*
X158020000Y-98680000D02*
X156540000Y-98680000D01*
X161448000Y-98721000D02*
X159980000Y-98721000D01*
X158020000Y-98721000D02*
X156552000Y-98721000D01*
X161436000Y-98761000D02*
X159980000Y-98761000D01*
X158020000Y-98761000D02*
X156564000Y-98761000D01*
X161424000Y-98801000D02*
X159980000Y-98801000D01*
X158020000Y-98801000D02*
X156576000Y-98801000D01*
X161410000Y-98841000D02*
X159980000Y-98841000D01*
X158020000Y-98841000D02*
X156590000Y-98841000D01*
X161396000Y-98881000D02*
X159980000Y-98881000D01*
X158020000Y-98881000D02*
X156604000Y-98881000D01*
X161382000Y-98921000D02*
X159980000Y-98921000D01*
X158020000Y-98921000D02*
X156618000Y-98921000D01*
X161366000Y-98961000D02*
X159980000Y-98961000D01*
X158020000Y-98961000D02*
X156634000Y-98961000D01*
X161350000Y-99001000D02*
X159980000Y-99001000D01*
X158020000Y-99001000D02*
X156650000Y-99001000D01*
X161333000Y-99041000D02*
X159980000Y-99041000D01*
X158020000Y-99041000D02*
X156667000Y-99041000D01*
X161315000Y-99081000D02*
X159980000Y-99081000D01*
X158020000Y-99081000D02*
X156685000Y-99081000D01*
X161296000Y-99121000D02*
X159980000Y-99121000D01*
X158020000Y-99121000D02*
X156704000Y-99121000D01*
X161276000Y-99161000D02*
X159980000Y-99161000D01*
X158020000Y-99161000D02*
X156724000Y-99161000D01*
X161256000Y-99201000D02*
X159980000Y-99201000D01*
X158020000Y-99201000D02*
X156744000Y-99201000D01*
X161234000Y-99241000D02*
X159980000Y-99241000D01*
X158020000Y-99241000D02*
X156766000Y-99241000D01*
X161212000Y-99281000D02*
X159980000Y-99281000D01*
X158020000Y-99281000D02*
X156788000Y-99281000D01*
X161189000Y-99321000D02*
X159980000Y-99321000D01*
X158020000Y-99321000D02*
X156811000Y-99321000D01*
X161165000Y-99361000D02*
X159980000Y-99361000D01*
X158020000Y-99361000D02*
X156835000Y-99361000D01*
X161140000Y-99401000D02*
X159980000Y-99401000D01*
X158020000Y-99401000D02*
X156860000Y-99401000D01*
X161113000Y-99441000D02*
X159980000Y-99441000D01*
X158020000Y-99441000D02*
X156887000Y-99441000D01*
X161086000Y-99481000D02*
X159980000Y-99481000D01*
X158020000Y-99481000D02*
X156914000Y-99481000D01*
X161058000Y-99521000D02*
X159980000Y-99521000D01*
X158020000Y-99521000D02*
X156942000Y-99521000D01*
X161028000Y-99561000D02*
X159980000Y-99561000D01*
X158020000Y-99561000D02*
X156972000Y-99561000D01*
X160997000Y-99601000D02*
X159980000Y-99601000D01*
X158020000Y-99601000D02*
X157003000Y-99601000D01*
X160965000Y-99641000D02*
X159980000Y-99641000D01*
X158020000Y-99641000D02*
X157035000Y-99641000D01*
X160932000Y-99681000D02*
X159980000Y-99681000D01*
X158020000Y-99681000D02*
X157068000Y-99681000D01*
X160897000Y-99721000D02*
X159980000Y-99721000D01*
X158020000Y-99721000D02*
X157103000Y-99721000D01*
X160861000Y-99761000D02*
X159980000Y-99761000D01*
X158020000Y-99761000D02*
X157139000Y-99761000D01*
X160823000Y-99801000D02*
X159980000Y-99801000D01*
X158020000Y-99801000D02*
X157177000Y-99801000D01*
X160783000Y-99841000D02*
X159980000Y-99841000D01*
X158020000Y-99841000D02*
X157217000Y-99841000D01*
X160742000Y-99881000D02*
X159980000Y-99881000D01*
X158020000Y-99881000D02*
X157258000Y-99881000D01*
X160699000Y-99921000D02*
X159980000Y-99921000D01*
X158020000Y-99921000D02*
X157301000Y-99921000D01*
X160654000Y-99961000D02*
X159980000Y-99961000D01*
X158020000Y-99961000D02*
X157346000Y-99961000D01*
X160606000Y-100001000D02*
X157394000Y-100001000D01*
X160556000Y-100041000D02*
X157444000Y-100041000D01*
X160504000Y-100081000D02*
X157496000Y-100081000D01*
X160448000Y-100121000D02*
X157552000Y-100121000D01*
X160390000Y-100161000D02*
X157610000Y-100161000D01*
X160327000Y-100201000D02*
X157673000Y-100201000D01*
X160261000Y-100241000D02*
X157739000Y-100241000D01*
X160189000Y-100281000D02*
X157811000Y-100281000D01*
X160112000Y-100321000D02*
X157888000Y-100321000D01*
X160028000Y-100361000D02*
X157972000Y-100361000D01*
X159934000Y-100401000D02*
X158066000Y-100401000D01*
X159829000Y-100441000D02*
X158171000Y-100441000D01*
X159707000Y-100481000D02*
X158293000Y-100481000D01*
X159559000Y-100521000D02*
X158441000Y-100521000D01*
X159354000Y-100561000D02*
X158646000Y-100561000D01*
X159000000Y-94800000D02*
X159000000Y-96000000D01*
X159650000Y-95400000D02*
X158350000Y-95400000D01*
X148320277Y-95694278D02*
G75*
G03X148320000Y-100305580I1179723J-2305722D01*
G01*
X150679723Y-95694278D02*
G75*
G02X150680000Y-100305580I-1179723J-2305722D01*
G01*
X150679723Y-95694278D02*
G75*
G03X148320000Y-95694420I-1179723J-2305722D01*
G01*
X146950000Y-98000000D02*
X152050000Y-98000000D01*
X146950000Y-97960000D02*
X148520000Y-97960000D01*
X150480000Y-97960000D02*
X152050000Y-97960000D01*
X146951000Y-97920000D02*
X148520000Y-97920000D01*
X150480000Y-97920000D02*
X152049000Y-97920000D01*
X146952000Y-97880000D02*
X148520000Y-97880000D01*
X150480000Y-97880000D02*
X152048000Y-97880000D01*
X146954000Y-97840000D02*
X148520000Y-97840000D01*
X150480000Y-97840000D02*
X152046000Y-97840000D01*
X146957000Y-97800000D02*
X148520000Y-97800000D01*
X150480000Y-97800000D02*
X152043000Y-97800000D01*
X146961000Y-97760000D02*
X148520000Y-97760000D01*
X150480000Y-97760000D02*
X152039000Y-97760000D01*
X146965000Y-97720000D02*
X148520000Y-97720000D01*
X150480000Y-97720000D02*
X152035000Y-97720000D01*
X146969000Y-97680000D02*
X148520000Y-97680000D01*
X150480000Y-97680000D02*
X152031000Y-97680000D01*
X146975000Y-97640000D02*
X148520000Y-97640000D01*
X150480000Y-97640000D02*
X152025000Y-97640000D01*
X146981000Y-97600000D02*
X148520000Y-97600000D01*
X150480000Y-97600000D02*
X152019000Y-97600000D01*
X146987000Y-97560000D02*
X148520000Y-97560000D01*
X150480000Y-97560000D02*
X152013000Y-97560000D01*
X146994000Y-97520000D02*
X148520000Y-97520000D01*
X150480000Y-97520000D02*
X152006000Y-97520000D01*
X147002000Y-97480000D02*
X148520000Y-97480000D01*
X150480000Y-97480000D02*
X151998000Y-97480000D01*
X147011000Y-97440000D02*
X148520000Y-97440000D01*
X150480000Y-97440000D02*
X151989000Y-97440000D01*
X147020000Y-97400000D02*
X148520000Y-97400000D01*
X150480000Y-97400000D02*
X151980000Y-97400000D01*
X147030000Y-97360000D02*
X148520000Y-97360000D01*
X150480000Y-97360000D02*
X151970000Y-97360000D01*
X147040000Y-97320000D02*
X148520000Y-97320000D01*
X150480000Y-97320000D02*
X151960000Y-97320000D01*
X147052000Y-97279000D02*
X148520000Y-97279000D01*
X150480000Y-97279000D02*
X151948000Y-97279000D01*
X147064000Y-97239000D02*
X148520000Y-97239000D01*
X150480000Y-97239000D02*
X151936000Y-97239000D01*
X147076000Y-97199000D02*
X148520000Y-97199000D01*
X150480000Y-97199000D02*
X151924000Y-97199000D01*
X147090000Y-97159000D02*
X148520000Y-97159000D01*
X150480000Y-97159000D02*
X151910000Y-97159000D01*
X147104000Y-97119000D02*
X148520000Y-97119000D01*
X150480000Y-97119000D02*
X151896000Y-97119000D01*
X147118000Y-97079000D02*
X148520000Y-97079000D01*
X150480000Y-97079000D02*
X151882000Y-97079000D01*
X147134000Y-97039000D02*
X148520000Y-97039000D01*
X150480000Y-97039000D02*
X151866000Y-97039000D01*
X147150000Y-96999000D02*
X148520000Y-96999000D01*
X150480000Y-96999000D02*
X151850000Y-96999000D01*
X147167000Y-96959000D02*
X148520000Y-96959000D01*
X150480000Y-96959000D02*
X151833000Y-96959000D01*
X147185000Y-96919000D02*
X148520000Y-96919000D01*
X150480000Y-96919000D02*
X151815000Y-96919000D01*
X147204000Y-96879000D02*
X148520000Y-96879000D01*
X150480000Y-96879000D02*
X151796000Y-96879000D01*
X147224000Y-96839000D02*
X148520000Y-96839000D01*
X150480000Y-96839000D02*
X151776000Y-96839000D01*
X147244000Y-96799000D02*
X148520000Y-96799000D01*
X150480000Y-96799000D02*
X151756000Y-96799000D01*
X147266000Y-96759000D02*
X148520000Y-96759000D01*
X150480000Y-96759000D02*
X151734000Y-96759000D01*
X147288000Y-96719000D02*
X148520000Y-96719000D01*
X150480000Y-96719000D02*
X151712000Y-96719000D01*
X147311000Y-96679000D02*
X148520000Y-96679000D01*
X150480000Y-96679000D02*
X151689000Y-96679000D01*
X147335000Y-96639000D02*
X148520000Y-96639000D01*
X150480000Y-96639000D02*
X151665000Y-96639000D01*
X147360000Y-96599000D02*
X148520000Y-96599000D01*
X150480000Y-96599000D02*
X151640000Y-96599000D01*
X147387000Y-96559000D02*
X148520000Y-96559000D01*
X150480000Y-96559000D02*
X151613000Y-96559000D01*
X147414000Y-96519000D02*
X148520000Y-96519000D01*
X150480000Y-96519000D02*
X151586000Y-96519000D01*
X147442000Y-96479000D02*
X148520000Y-96479000D01*
X150480000Y-96479000D02*
X151558000Y-96479000D01*
X147472000Y-96439000D02*
X148520000Y-96439000D01*
X150480000Y-96439000D02*
X151528000Y-96439000D01*
X147503000Y-96399000D02*
X148520000Y-96399000D01*
X150480000Y-96399000D02*
X151497000Y-96399000D01*
X147535000Y-96359000D02*
X148520000Y-96359000D01*
X150480000Y-96359000D02*
X151465000Y-96359000D01*
X147568000Y-96319000D02*
X148520000Y-96319000D01*
X150480000Y-96319000D02*
X151432000Y-96319000D01*
X147603000Y-96279000D02*
X148520000Y-96279000D01*
X150480000Y-96279000D02*
X151397000Y-96279000D01*
X147639000Y-96239000D02*
X148520000Y-96239000D01*
X150480000Y-96239000D02*
X151361000Y-96239000D01*
X147677000Y-96199000D02*
X148520000Y-96199000D01*
X150480000Y-96199000D02*
X151323000Y-96199000D01*
X147717000Y-96159000D02*
X148520000Y-96159000D01*
X150480000Y-96159000D02*
X151283000Y-96159000D01*
X147758000Y-96119000D02*
X148520000Y-96119000D01*
X150480000Y-96119000D02*
X151242000Y-96119000D01*
X147801000Y-96079000D02*
X148520000Y-96079000D01*
X150480000Y-96079000D02*
X151199000Y-96079000D01*
X147846000Y-96039000D02*
X148520000Y-96039000D01*
X150480000Y-96039000D02*
X151154000Y-96039000D01*
X147894000Y-95999000D02*
X151106000Y-95999000D01*
X147944000Y-95959000D02*
X151056000Y-95959000D01*
X147996000Y-95919000D02*
X151004000Y-95919000D01*
X148052000Y-95879000D02*
X150948000Y-95879000D01*
X148110000Y-95839000D02*
X150890000Y-95839000D01*
X148173000Y-95799000D02*
X150827000Y-95799000D01*
X148239000Y-95759000D02*
X150761000Y-95759000D01*
X148311000Y-95719000D02*
X150689000Y-95719000D01*
X148388000Y-95679000D02*
X150612000Y-95679000D01*
X148472000Y-95639000D02*
X150528000Y-95639000D01*
X148566000Y-95599000D02*
X150434000Y-95599000D01*
X148671000Y-95559000D02*
X150329000Y-95559000D01*
X148793000Y-95519000D02*
X150207000Y-95519000D01*
X148941000Y-95479000D02*
X150059000Y-95479000D01*
X149146000Y-95439000D02*
X149854000Y-95439000D01*
X149500000Y-101200000D02*
X149500000Y-100000000D01*
X148850000Y-100600000D02*
X150150000Y-100600000D01*
X102360000Y-84300000D02*
G75*
G03X102360000Y-84300000I-1860000J0D01*
G01*
X100500000Y-86160000D02*
X100500000Y-87880000D01*
X104920000Y-71590000D02*
G75*
G03X104920000Y-71590000I-1860000J0D01*
G01*
X103060000Y-73450000D02*
X103060000Y-75170000D01*
X110000000Y-71590000D02*
G75*
G03X110000000Y-71590000I-1860000J0D01*
G01*
X108140000Y-73450000D02*
X108140000Y-75170000D01*
X112540000Y-84290000D02*
G75*
G03X112540000Y-84290000I-1860000J0D01*
G01*
X110680000Y-86150000D02*
X110680000Y-87870000D01*
X115080000Y-71590000D02*
G75*
G03X115080000Y-71590000I-1860000J0D01*
G01*
X113220000Y-73450000D02*
X113220000Y-75170000D01*
X117620000Y-84290000D02*
G75*
G03X117620000Y-84290000I-1860000J0D01*
G01*
X115760000Y-86150000D02*
X115760000Y-87870000D01*
X120160000Y-71590000D02*
G75*
G03X120160000Y-71590000I-1860000J0D01*
G01*
X118300000Y-73450000D02*
X118300000Y-75170000D01*
X76130000Y-84290000D02*
G75*
G03X76130000Y-84290000I-1860000J0D01*
G01*
X74270000Y-86150000D02*
X74270000Y-87870000D01*
X78670000Y-71590000D02*
G75*
G03X78670000Y-71590000I-1860000J0D01*
G01*
X76810000Y-73450000D02*
X76810000Y-75170000D01*
X81210000Y-84290000D02*
G75*
G03X81210000Y-84290000I-1860000J0D01*
G01*
X79350000Y-86150000D02*
X79350000Y-87870000D01*
X83750000Y-71590000D02*
G75*
G03X83750000Y-71590000I-1860000J0D01*
G01*
X81890000Y-73450000D02*
X81890000Y-75170000D01*
X86290000Y-84290000D02*
G75*
G03X86290000Y-84290000I-1860000J0D01*
G01*
X84430000Y-86150000D02*
X84430000Y-87870000D01*
X88830000Y-71590000D02*
G75*
G03X88830000Y-71590000I-1860000J0D01*
G01*
X86970000Y-73450000D02*
X86970000Y-75170000D01*
X91370000Y-84290000D02*
G75*
G03X91370000Y-84290000I-1860000J0D01*
G01*
X89510000Y-86150000D02*
X89510000Y-87870000D01*
X93910000Y-71590000D02*
G75*
G03X93910000Y-71590000I-1860000J0D01*
G01*
X92050000Y-73450000D02*
X92050000Y-75170000D01*
X147600000Y-113000000D02*
X147600000Y-121800000D01*
X147600000Y-121800000D02*
X138400000Y-121800000D01*
X144900000Y-107100000D02*
X147600000Y-107100000D01*
X147600000Y-107100000D02*
X147600000Y-109000000D01*
X138400000Y-121800000D02*
X138400000Y-107100000D01*
X138400000Y-107100000D02*
X141000000Y-107100000D01*
D13*
X66450000Y-73100000D02*
X66050000Y-73100000D01*
X67550000Y-69600000D02*
X67550000Y-76600000D01*
X66450000Y-69600000D02*
X66450000Y-76600000D01*
X73650000Y-69600000D02*
X66050000Y-69600000D01*
X66050000Y-76600000D02*
X73650000Y-76600000D01*
X73650000Y-76600000D02*
X73650000Y-69600000D01*
X159149524Y-87742381D02*
X159149524Y-86742381D01*
X159387619Y-86742381D01*
X159530477Y-86790000D01*
X159625715Y-86885238D01*
X159673334Y-86980476D01*
X159720953Y-87170952D01*
X159720953Y-87313810D01*
X159673334Y-87504286D01*
X159625715Y-87599524D01*
X159530477Y-87694762D01*
X159387619Y-87742381D01*
X159149524Y-87742381D01*
X160530477Y-87694762D02*
X160435239Y-87742381D01*
X160244762Y-87742381D01*
X160149524Y-87694762D01*
X160101905Y-87599524D01*
X160101905Y-87218571D01*
X160149524Y-87123333D01*
X160244762Y-87075714D01*
X160435239Y-87075714D01*
X160530477Y-87123333D01*
X160578096Y-87218571D01*
X160578096Y-87313810D01*
X160101905Y-87409048D01*
X161006667Y-87742381D02*
X161006667Y-87075714D01*
X161006667Y-87170952D02*
X161054286Y-87123333D01*
X161149524Y-87075714D01*
X161292382Y-87075714D01*
X161387620Y-87123333D01*
X161435239Y-87218571D01*
X161435239Y-87742381D01*
X161435239Y-87218571D02*
X161482858Y-87123333D01*
X161578096Y-87075714D01*
X161720953Y-87075714D01*
X161816191Y-87123333D01*
X161863810Y-87218571D01*
X161863810Y-87742381D01*
X162768572Y-87075714D02*
X162768572Y-87742381D01*
X162340000Y-87075714D02*
X162340000Y-87599524D01*
X162387619Y-87694762D01*
X162482857Y-87742381D01*
X162625715Y-87742381D01*
X162720953Y-87694762D01*
X162768572Y-87647143D01*
X163149524Y-87742381D02*
X163673334Y-87075714D01*
X163149524Y-87075714D02*
X163673334Y-87742381D01*
X164006667Y-86837619D02*
X164054286Y-86790000D01*
X164149524Y-86742381D01*
X164387620Y-86742381D01*
X164482858Y-86790000D01*
X164530477Y-86837619D01*
X164578096Y-86932857D01*
X164578096Y-87028095D01*
X164530477Y-87170952D01*
X163959048Y-87742381D01*
X164578096Y-87742381D01*
X104414286Y-86552381D02*
X105033334Y-86552381D01*
X104700000Y-86933333D01*
X104842858Y-86933333D01*
X104938096Y-86980952D01*
X104985715Y-87028571D01*
X105033334Y-87123810D01*
X105033334Y-87361905D01*
X104985715Y-87457143D01*
X104938096Y-87504762D01*
X104842858Y-87552381D01*
X104557143Y-87552381D01*
X104461905Y-87504762D01*
X104414286Y-87457143D01*
X105366667Y-86552381D02*
X105985715Y-86552381D01*
X105652381Y-86933333D01*
X105795239Y-86933333D01*
X105890477Y-86980952D01*
X105938096Y-87028571D01*
X105985715Y-87123810D01*
X105985715Y-87361905D01*
X105938096Y-87457143D01*
X105890477Y-87504762D01*
X105795239Y-87552381D01*
X105509524Y-87552381D01*
X105414286Y-87504762D01*
X105366667Y-87457143D01*
X106604762Y-86552381D02*
X106700001Y-86552381D01*
X106795239Y-86600000D01*
X106842858Y-86647619D01*
X106890477Y-86742857D01*
X106938096Y-86933333D01*
X106938096Y-87171429D01*
X106890477Y-87361905D01*
X106842858Y-87457143D01*
X106795239Y-87504762D01*
X106700001Y-87552381D01*
X106604762Y-87552381D01*
X106509524Y-87504762D01*
X106461905Y-87457143D01*
X106414286Y-87361905D01*
X106366667Y-87171429D01*
X106366667Y-86933333D01*
X106414286Y-86742857D01*
X106461905Y-86647619D01*
X106509524Y-86600000D01*
X106604762Y-86552381D01*
X133154761Y-76202381D02*
X133154761Y-75202381D01*
X133392856Y-75202381D01*
X133535714Y-75250000D01*
X133630952Y-75345238D01*
X133678571Y-75440476D01*
X133726190Y-75630952D01*
X133726190Y-75773810D01*
X133678571Y-75964286D01*
X133630952Y-76059524D01*
X133535714Y-76154762D01*
X133392856Y-76202381D01*
X133154761Y-76202381D01*
X134583333Y-76202381D02*
X134583333Y-75678571D01*
X134535714Y-75583333D01*
X134440476Y-75535714D01*
X134249999Y-75535714D01*
X134154761Y-75583333D01*
X134583333Y-76154762D02*
X134488095Y-76202381D01*
X134249999Y-76202381D01*
X134154761Y-76154762D01*
X134107142Y-76059524D01*
X134107142Y-75964286D01*
X134154761Y-75869048D01*
X134249999Y-75821429D01*
X134488095Y-75821429D01*
X134583333Y-75773810D01*
X135059523Y-76202381D02*
X135059523Y-75535714D01*
X135059523Y-75726190D02*
X135107142Y-75630952D01*
X135154761Y-75583333D01*
X135249999Y-75535714D01*
X135345238Y-75535714D01*
X135821428Y-76202381D02*
X135726190Y-76154762D01*
X135678571Y-76059524D01*
X135678571Y-75202381D01*
X136202381Y-76202381D02*
X136202381Y-75535714D01*
X136202381Y-75202381D02*
X136154762Y-75250000D01*
X136202381Y-75297619D01*
X136250000Y-75250000D01*
X136202381Y-75202381D01*
X136202381Y-75297619D01*
X136678571Y-75535714D02*
X136678571Y-76202381D01*
X136678571Y-75630952D02*
X136726190Y-75583333D01*
X136821428Y-75535714D01*
X136964286Y-75535714D01*
X137059524Y-75583333D01*
X137107143Y-75678571D01*
X137107143Y-76202381D01*
X138011905Y-75535714D02*
X138011905Y-76345238D01*
X137964286Y-76440476D01*
X137916667Y-76488095D01*
X137821428Y-76535714D01*
X137678571Y-76535714D01*
X137583333Y-76488095D01*
X138011905Y-76154762D02*
X137916667Y-76202381D01*
X137726190Y-76202381D01*
X137630952Y-76154762D01*
X137583333Y-76107143D01*
X137535714Y-76011905D01*
X137535714Y-75726190D01*
X137583333Y-75630952D01*
X137630952Y-75583333D01*
X137726190Y-75535714D01*
X137916667Y-75535714D01*
X138011905Y-75583333D01*
X138345238Y-75535714D02*
X138726190Y-75535714D01*
X138488095Y-75202381D02*
X138488095Y-76059524D01*
X138535714Y-76154762D01*
X138630952Y-76202381D01*
X138726190Y-76202381D01*
X139202381Y-76202381D02*
X139107143Y-76154762D01*
X139059524Y-76107143D01*
X139011905Y-76011905D01*
X139011905Y-75726190D01*
X139059524Y-75630952D01*
X139107143Y-75583333D01*
X139202381Y-75535714D01*
X139345239Y-75535714D01*
X139440477Y-75583333D01*
X139488096Y-75630952D01*
X139535715Y-75726190D01*
X139535715Y-76011905D01*
X139488096Y-76107143D01*
X139440477Y-76154762D01*
X139345239Y-76202381D01*
X139202381Y-76202381D01*
X139964286Y-75535714D02*
X139964286Y-76202381D01*
X139964286Y-75630952D02*
X140011905Y-75583333D01*
X140107143Y-75535714D01*
X140250001Y-75535714D01*
X140345239Y-75583333D01*
X140392858Y-75678571D01*
X140392858Y-76202381D01*
X141392858Y-76202381D02*
X140821429Y-76202381D01*
X141107143Y-76202381D02*
X141107143Y-75202381D01*
X141011905Y-75345238D01*
X140916667Y-75440476D01*
X140821429Y-75488095D01*
X160704761Y-76212381D02*
X160704761Y-75212381D01*
X160942856Y-75212381D01*
X161085714Y-75260000D01*
X161180952Y-75355238D01*
X161228571Y-75450476D01*
X161276190Y-75640952D01*
X161276190Y-75783810D01*
X161228571Y-75974286D01*
X161180952Y-76069524D01*
X161085714Y-76164762D01*
X160942856Y-76212381D01*
X160704761Y-76212381D01*
X162133333Y-76212381D02*
X162133333Y-75688571D01*
X162085714Y-75593333D01*
X161990476Y-75545714D01*
X161799999Y-75545714D01*
X161704761Y-75593333D01*
X162133333Y-76164762D02*
X162038095Y-76212381D01*
X161799999Y-76212381D01*
X161704761Y-76164762D01*
X161657142Y-76069524D01*
X161657142Y-75974286D01*
X161704761Y-75879048D01*
X161799999Y-75831429D01*
X162038095Y-75831429D01*
X162133333Y-75783810D01*
X162609523Y-76212381D02*
X162609523Y-75545714D01*
X162609523Y-75736190D02*
X162657142Y-75640952D01*
X162704761Y-75593333D01*
X162799999Y-75545714D01*
X162895238Y-75545714D01*
X163371428Y-76212381D02*
X163276190Y-76164762D01*
X163228571Y-76069524D01*
X163228571Y-75212381D01*
X163752381Y-76212381D02*
X163752381Y-75545714D01*
X163752381Y-75212381D02*
X163704762Y-75260000D01*
X163752381Y-75307619D01*
X163800000Y-75260000D01*
X163752381Y-75212381D01*
X163752381Y-75307619D01*
X164228571Y-75545714D02*
X164228571Y-76212381D01*
X164228571Y-75640952D02*
X164276190Y-75593333D01*
X164371428Y-75545714D01*
X164514286Y-75545714D01*
X164609524Y-75593333D01*
X164657143Y-75688571D01*
X164657143Y-76212381D01*
X165561905Y-75545714D02*
X165561905Y-76355238D01*
X165514286Y-76450476D01*
X165466667Y-76498095D01*
X165371428Y-76545714D01*
X165228571Y-76545714D01*
X165133333Y-76498095D01*
X165561905Y-76164762D02*
X165466667Y-76212381D01*
X165276190Y-76212381D01*
X165180952Y-76164762D01*
X165133333Y-76117143D01*
X165085714Y-76021905D01*
X165085714Y-75736190D01*
X165133333Y-75640952D01*
X165180952Y-75593333D01*
X165276190Y-75545714D01*
X165466667Y-75545714D01*
X165561905Y-75593333D01*
X165895238Y-75545714D02*
X166276190Y-75545714D01*
X166038095Y-75212381D02*
X166038095Y-76069524D01*
X166085714Y-76164762D01*
X166180952Y-76212381D01*
X166276190Y-76212381D01*
X166752381Y-76212381D02*
X166657143Y-76164762D01*
X166609524Y-76117143D01*
X166561905Y-76021905D01*
X166561905Y-75736190D01*
X166609524Y-75640952D01*
X166657143Y-75593333D01*
X166752381Y-75545714D01*
X166895239Y-75545714D01*
X166990477Y-75593333D01*
X167038096Y-75640952D01*
X167085715Y-75736190D01*
X167085715Y-76021905D01*
X167038096Y-76117143D01*
X166990477Y-76164762D01*
X166895239Y-76212381D01*
X166752381Y-76212381D01*
X167514286Y-75545714D02*
X167514286Y-76212381D01*
X167514286Y-75640952D02*
X167561905Y-75593333D01*
X167657143Y-75545714D01*
X167800001Y-75545714D01*
X167895239Y-75593333D01*
X167942858Y-75688571D01*
X167942858Y-76212381D01*
X168371429Y-75307619D02*
X168419048Y-75260000D01*
X168514286Y-75212381D01*
X168752382Y-75212381D01*
X168847620Y-75260000D01*
X168895239Y-75307619D01*
X168942858Y-75402857D01*
X168942858Y-75498095D01*
X168895239Y-75640952D01*
X168323810Y-76212381D01*
X168942858Y-76212381D01*
X131559524Y-87702381D02*
X131559524Y-86702381D01*
X131797619Y-86702381D01*
X131940477Y-86750000D01*
X132035715Y-86845238D01*
X132083334Y-86940476D01*
X132130953Y-87130952D01*
X132130953Y-87273810D01*
X132083334Y-87464286D01*
X132035715Y-87559524D01*
X131940477Y-87654762D01*
X131797619Y-87702381D01*
X131559524Y-87702381D01*
X132940477Y-87654762D02*
X132845239Y-87702381D01*
X132654762Y-87702381D01*
X132559524Y-87654762D01*
X132511905Y-87559524D01*
X132511905Y-87178571D01*
X132559524Y-87083333D01*
X132654762Y-87035714D01*
X132845239Y-87035714D01*
X132940477Y-87083333D01*
X132988096Y-87178571D01*
X132988096Y-87273810D01*
X132511905Y-87369048D01*
X133416667Y-87702381D02*
X133416667Y-87035714D01*
X133416667Y-87130952D02*
X133464286Y-87083333D01*
X133559524Y-87035714D01*
X133702382Y-87035714D01*
X133797620Y-87083333D01*
X133845239Y-87178571D01*
X133845239Y-87702381D01*
X133845239Y-87178571D02*
X133892858Y-87083333D01*
X133988096Y-87035714D01*
X134130953Y-87035714D01*
X134226191Y-87083333D01*
X134273810Y-87178571D01*
X134273810Y-87702381D01*
X135178572Y-87035714D02*
X135178572Y-87702381D01*
X134750000Y-87035714D02*
X134750000Y-87559524D01*
X134797619Y-87654762D01*
X134892857Y-87702381D01*
X135035715Y-87702381D01*
X135130953Y-87654762D01*
X135178572Y-87607143D01*
X135559524Y-87702381D02*
X136083334Y-87035714D01*
X135559524Y-87035714D02*
X136083334Y-87702381D01*
X136988096Y-87702381D02*
X136416667Y-87702381D01*
X136702381Y-87702381D02*
X136702381Y-86702381D01*
X136607143Y-86845238D01*
X136511905Y-86940476D01*
X136416667Y-86988095D01*
X81595238Y-102452381D02*
X81595238Y-101452381D01*
X81833333Y-101452381D01*
X81976191Y-101500000D01*
X82071429Y-101595238D01*
X82119048Y-101690476D01*
X82166667Y-101880952D01*
X82166667Y-102023810D01*
X82119048Y-102214286D01*
X82071429Y-102309524D01*
X81976191Y-102404762D01*
X81833333Y-102452381D01*
X81595238Y-102452381D01*
X82595238Y-102452381D02*
X82595238Y-101785714D01*
X82595238Y-101976190D02*
X82642857Y-101880952D01*
X82690476Y-101833333D01*
X82785714Y-101785714D01*
X82880953Y-101785714D01*
X83214286Y-102452381D02*
X83214286Y-101785714D01*
X83214286Y-101452381D02*
X83166667Y-101500000D01*
X83214286Y-101547619D01*
X83261905Y-101500000D01*
X83214286Y-101452381D01*
X83214286Y-101547619D01*
X83595238Y-101785714D02*
X83833333Y-102452381D01*
X84071429Y-101785714D01*
X84833334Y-102404762D02*
X84738096Y-102452381D01*
X84547619Y-102452381D01*
X84452381Y-102404762D01*
X84404762Y-102309524D01*
X84404762Y-101928571D01*
X84452381Y-101833333D01*
X84547619Y-101785714D01*
X84738096Y-101785714D01*
X84833334Y-101833333D01*
X84880953Y-101928571D01*
X84880953Y-102023810D01*
X84404762Y-102119048D01*
X85309524Y-102452381D02*
X85309524Y-101785714D01*
X85309524Y-101976190D02*
X85357143Y-101880952D01*
X85404762Y-101833333D01*
X85500000Y-101785714D01*
X85595239Y-101785714D01*
X86452382Y-102452381D02*
X85880953Y-102452381D01*
X86166667Y-102452381D02*
X86166667Y-101452381D01*
X86071429Y-101595238D01*
X85976191Y-101690476D01*
X85880953Y-101738095D01*
X108595238Y-102452381D02*
X108595238Y-101452381D01*
X108833333Y-101452381D01*
X108976191Y-101500000D01*
X109071429Y-101595238D01*
X109119048Y-101690476D01*
X109166667Y-101880952D01*
X109166667Y-102023810D01*
X109119048Y-102214286D01*
X109071429Y-102309524D01*
X108976191Y-102404762D01*
X108833333Y-102452381D01*
X108595238Y-102452381D01*
X109595238Y-102452381D02*
X109595238Y-101785714D01*
X109595238Y-101976190D02*
X109642857Y-101880952D01*
X109690476Y-101833333D01*
X109785714Y-101785714D01*
X109880953Y-101785714D01*
X110214286Y-102452381D02*
X110214286Y-101785714D01*
X110214286Y-101452381D02*
X110166667Y-101500000D01*
X110214286Y-101547619D01*
X110261905Y-101500000D01*
X110214286Y-101452381D01*
X110214286Y-101547619D01*
X110595238Y-101785714D02*
X110833333Y-102452381D01*
X111071429Y-101785714D01*
X111833334Y-102404762D02*
X111738096Y-102452381D01*
X111547619Y-102452381D01*
X111452381Y-102404762D01*
X111404762Y-102309524D01*
X111404762Y-101928571D01*
X111452381Y-101833333D01*
X111547619Y-101785714D01*
X111738096Y-101785714D01*
X111833334Y-101833333D01*
X111880953Y-101928571D01*
X111880953Y-102023810D01*
X111404762Y-102119048D01*
X112309524Y-102452381D02*
X112309524Y-101785714D01*
X112309524Y-101976190D02*
X112357143Y-101880952D01*
X112404762Y-101833333D01*
X112500000Y-101785714D01*
X112595239Y-101785714D01*
X112880953Y-101547619D02*
X112928572Y-101500000D01*
X113023810Y-101452381D01*
X113261906Y-101452381D01*
X113357144Y-101500000D01*
X113404763Y-101547619D01*
X113452382Y-101642857D01*
X113452382Y-101738095D01*
X113404763Y-101880952D01*
X112833334Y-102452381D01*
X113452382Y-102452381D01*
X103505237Y-110721501D02*
X103171903Y-110245310D01*
X102933808Y-110721501D02*
X102933808Y-109721501D01*
X103314761Y-109721501D01*
X103409999Y-109769120D01*
X103457618Y-109816739D01*
X103505237Y-109911977D01*
X103505237Y-110054834D01*
X103457618Y-110150072D01*
X103409999Y-110197691D01*
X103314761Y-110245310D01*
X102933808Y-110245310D01*
X104314761Y-110673882D02*
X104219523Y-110721501D01*
X104029046Y-110721501D01*
X103933808Y-110673882D01*
X103886189Y-110578644D01*
X103886189Y-110197691D01*
X103933808Y-110102453D01*
X104029046Y-110054834D01*
X104219523Y-110054834D01*
X104314761Y-110102453D01*
X104362380Y-110197691D01*
X104362380Y-110292930D01*
X103886189Y-110388168D01*
X105219523Y-110054834D02*
X105219523Y-110864358D01*
X105171904Y-110959596D01*
X105124285Y-111007215D01*
X105029046Y-111054834D01*
X104886189Y-111054834D01*
X104790951Y-111007215D01*
X105219523Y-110673882D02*
X105124285Y-110721501D01*
X104933808Y-110721501D01*
X104838570Y-110673882D01*
X104790951Y-110626263D01*
X104743332Y-110531025D01*
X104743332Y-110245310D01*
X104790951Y-110150072D01*
X104838570Y-110102453D01*
X104933808Y-110054834D01*
X105124285Y-110054834D01*
X105219523Y-110102453D01*
X105695713Y-110721501D02*
X105695713Y-110054834D01*
X105695713Y-109721501D02*
X105648094Y-109769120D01*
X105695713Y-109816739D01*
X105743332Y-109769120D01*
X105695713Y-109721501D01*
X105695713Y-109816739D01*
X106124284Y-110673882D02*
X106219522Y-110721501D01*
X106409998Y-110721501D01*
X106505237Y-110673882D01*
X106552856Y-110578644D01*
X106552856Y-110531025D01*
X106505237Y-110435787D01*
X106409998Y-110388168D01*
X106267141Y-110388168D01*
X106171903Y-110340549D01*
X106124284Y-110245310D01*
X106124284Y-110197691D01*
X106171903Y-110102453D01*
X106267141Y-110054834D01*
X106409998Y-110054834D01*
X106505237Y-110102453D01*
X106838570Y-110054834D02*
X107219522Y-110054834D01*
X106981427Y-109721501D02*
X106981427Y-110578644D01*
X107029046Y-110673882D01*
X107124284Y-110721501D01*
X107219522Y-110721501D01*
X107933809Y-110673882D02*
X107838571Y-110721501D01*
X107648094Y-110721501D01*
X107552856Y-110673882D01*
X107505237Y-110578644D01*
X107505237Y-110197691D01*
X107552856Y-110102453D01*
X107648094Y-110054834D01*
X107838571Y-110054834D01*
X107933809Y-110102453D01*
X107981428Y-110197691D01*
X107981428Y-110292930D01*
X107505237Y-110388168D01*
X108409999Y-110721501D02*
X108409999Y-110054834D01*
X108409999Y-110245310D02*
X108457618Y-110150072D01*
X108505237Y-110102453D01*
X108600475Y-110054834D01*
X108695714Y-110054834D01*
X109648095Y-110054834D02*
X110029047Y-110054834D01*
X109790952Y-109721501D02*
X109790952Y-110578644D01*
X109838571Y-110673882D01*
X109933809Y-110721501D01*
X110029047Y-110721501D01*
X110505238Y-110721501D02*
X110410000Y-110673882D01*
X110362381Y-110626263D01*
X110314762Y-110531025D01*
X110314762Y-110245310D01*
X110362381Y-110150072D01*
X110410000Y-110102453D01*
X110505238Y-110054834D01*
X110648096Y-110054834D01*
X110743334Y-110102453D01*
X110790953Y-110150072D01*
X110838572Y-110245310D01*
X110838572Y-110531025D01*
X110790953Y-110626263D01*
X110743334Y-110673882D01*
X110648096Y-110721501D01*
X110505238Y-110721501D01*
X112029048Y-110721501D02*
X112029048Y-109721501D01*
X112267143Y-109721501D01*
X112410001Y-109769120D01*
X112505239Y-109864358D01*
X112552858Y-109959596D01*
X112600477Y-110150072D01*
X112600477Y-110292930D01*
X112552858Y-110483406D01*
X112505239Y-110578644D01*
X112410001Y-110673882D01*
X112267143Y-110721501D01*
X112029048Y-110721501D01*
X113029048Y-110721501D02*
X113029048Y-110054834D01*
X113029048Y-110245310D02*
X113076667Y-110150072D01*
X113124286Y-110102453D01*
X113219524Y-110054834D01*
X113314763Y-110054834D01*
X113648096Y-110721501D02*
X113648096Y-110054834D01*
X113648096Y-109721501D02*
X113600477Y-109769120D01*
X113648096Y-109816739D01*
X113695715Y-109769120D01*
X113648096Y-109721501D01*
X113648096Y-109816739D01*
X114029048Y-110054834D02*
X114267143Y-110721501D01*
X114505239Y-110054834D01*
X115267144Y-110673882D02*
X115171906Y-110721501D01*
X114981429Y-110721501D01*
X114886191Y-110673882D01*
X114838572Y-110578644D01*
X114838572Y-110197691D01*
X114886191Y-110102453D01*
X114981429Y-110054834D01*
X115171906Y-110054834D01*
X115267144Y-110102453D01*
X115314763Y-110197691D01*
X115314763Y-110292930D01*
X114838572Y-110388168D01*
X115743334Y-110721501D02*
X115743334Y-110054834D01*
X115743334Y-110245310D02*
X115790953Y-110150072D01*
X115838572Y-110102453D01*
X115933810Y-110054834D01*
X116029049Y-110054834D01*
X77255237Y-110721501D02*
X76921903Y-110245310D01*
X76683808Y-110721501D02*
X76683808Y-109721501D01*
X77064761Y-109721501D01*
X77159999Y-109769120D01*
X77207618Y-109816739D01*
X77255237Y-109911977D01*
X77255237Y-110054834D01*
X77207618Y-110150072D01*
X77159999Y-110197691D01*
X77064761Y-110245310D01*
X76683808Y-110245310D01*
X78064761Y-110673882D02*
X77969523Y-110721501D01*
X77779046Y-110721501D01*
X77683808Y-110673882D01*
X77636189Y-110578644D01*
X77636189Y-110197691D01*
X77683808Y-110102453D01*
X77779046Y-110054834D01*
X77969523Y-110054834D01*
X78064761Y-110102453D01*
X78112380Y-110197691D01*
X78112380Y-110292930D01*
X77636189Y-110388168D01*
X78969523Y-110054834D02*
X78969523Y-110864358D01*
X78921904Y-110959596D01*
X78874285Y-111007215D01*
X78779046Y-111054834D01*
X78636189Y-111054834D01*
X78540951Y-111007215D01*
X78969523Y-110673882D02*
X78874285Y-110721501D01*
X78683808Y-110721501D01*
X78588570Y-110673882D01*
X78540951Y-110626263D01*
X78493332Y-110531025D01*
X78493332Y-110245310D01*
X78540951Y-110150072D01*
X78588570Y-110102453D01*
X78683808Y-110054834D01*
X78874285Y-110054834D01*
X78969523Y-110102453D01*
X79445713Y-110721501D02*
X79445713Y-110054834D01*
X79445713Y-109721501D02*
X79398094Y-109769120D01*
X79445713Y-109816739D01*
X79493332Y-109769120D01*
X79445713Y-109721501D01*
X79445713Y-109816739D01*
X79874284Y-110673882D02*
X79969522Y-110721501D01*
X80159998Y-110721501D01*
X80255237Y-110673882D01*
X80302856Y-110578644D01*
X80302856Y-110531025D01*
X80255237Y-110435787D01*
X80159998Y-110388168D01*
X80017141Y-110388168D01*
X79921903Y-110340549D01*
X79874284Y-110245310D01*
X79874284Y-110197691D01*
X79921903Y-110102453D01*
X80017141Y-110054834D01*
X80159998Y-110054834D01*
X80255237Y-110102453D01*
X80588570Y-110054834D02*
X80969522Y-110054834D01*
X80731427Y-109721501D02*
X80731427Y-110578644D01*
X80779046Y-110673882D01*
X80874284Y-110721501D01*
X80969522Y-110721501D01*
X81683809Y-110673882D02*
X81588571Y-110721501D01*
X81398094Y-110721501D01*
X81302856Y-110673882D01*
X81255237Y-110578644D01*
X81255237Y-110197691D01*
X81302856Y-110102453D01*
X81398094Y-110054834D01*
X81588571Y-110054834D01*
X81683809Y-110102453D01*
X81731428Y-110197691D01*
X81731428Y-110292930D01*
X81255237Y-110388168D01*
X82159999Y-110721501D02*
X82159999Y-110054834D01*
X82159999Y-110245310D02*
X82207618Y-110150072D01*
X82255237Y-110102453D01*
X82350475Y-110054834D01*
X82445714Y-110054834D01*
X83398095Y-110054834D02*
X83779047Y-110054834D01*
X83540952Y-109721501D02*
X83540952Y-110578644D01*
X83588571Y-110673882D01*
X83683809Y-110721501D01*
X83779047Y-110721501D01*
X84255238Y-110721501D02*
X84160000Y-110673882D01*
X84112381Y-110626263D01*
X84064762Y-110531025D01*
X84064762Y-110245310D01*
X84112381Y-110150072D01*
X84160000Y-110102453D01*
X84255238Y-110054834D01*
X84398096Y-110054834D01*
X84493334Y-110102453D01*
X84540953Y-110150072D01*
X84588572Y-110245310D01*
X84588572Y-110531025D01*
X84540953Y-110626263D01*
X84493334Y-110673882D01*
X84398096Y-110721501D01*
X84255238Y-110721501D01*
X85779048Y-110721501D02*
X85779048Y-109721501D01*
X86017143Y-109721501D01*
X86160001Y-109769120D01*
X86255239Y-109864358D01*
X86302858Y-109959596D01*
X86350477Y-110150072D01*
X86350477Y-110292930D01*
X86302858Y-110483406D01*
X86255239Y-110578644D01*
X86160001Y-110673882D01*
X86017143Y-110721501D01*
X85779048Y-110721501D01*
X86779048Y-110721501D02*
X86779048Y-110054834D01*
X86779048Y-110245310D02*
X86826667Y-110150072D01*
X86874286Y-110102453D01*
X86969524Y-110054834D01*
X87064763Y-110054834D01*
X87398096Y-110721501D02*
X87398096Y-110054834D01*
X87398096Y-109721501D02*
X87350477Y-109769120D01*
X87398096Y-109816739D01*
X87445715Y-109769120D01*
X87398096Y-109721501D01*
X87398096Y-109816739D01*
X87779048Y-110054834D02*
X88017143Y-110721501D01*
X88255239Y-110054834D01*
X89017144Y-110673882D02*
X88921906Y-110721501D01*
X88731429Y-110721501D01*
X88636191Y-110673882D01*
X88588572Y-110578644D01*
X88588572Y-110197691D01*
X88636191Y-110102453D01*
X88731429Y-110054834D01*
X88921906Y-110054834D01*
X89017144Y-110102453D01*
X89064763Y-110197691D01*
X89064763Y-110292930D01*
X88588572Y-110388168D01*
X89493334Y-110721501D02*
X89493334Y-110054834D01*
X89493334Y-110245310D02*
X89540953Y-110150072D01*
X89588572Y-110102453D01*
X89683810Y-110054834D01*
X89779049Y-110054834D01*
X104481428Y-67653261D02*
X104005237Y-67653261D01*
X104005237Y-66653261D01*
X104814761Y-67129451D02*
X105148095Y-67129451D01*
X105290952Y-67653261D02*
X104814761Y-67653261D01*
X104814761Y-66653261D01*
X105290952Y-66653261D01*
X105719523Y-67653261D02*
X105719523Y-66653261D01*
X105957618Y-66653261D01*
X106100476Y-66700880D01*
X106195714Y-66796118D01*
X106243333Y-66891356D01*
X106290952Y-67081832D01*
X106290952Y-67224690D01*
X106243333Y-67415166D01*
X106195714Y-67510404D01*
X106100476Y-67605642D01*
X105957618Y-67653261D01*
X105719523Y-67653261D01*
X107338571Y-66986594D02*
X107719523Y-66986594D01*
X107481428Y-66653261D02*
X107481428Y-67510404D01*
X107529047Y-67605642D01*
X107624285Y-67653261D01*
X107719523Y-67653261D01*
X108195714Y-67653261D02*
X108100476Y-67605642D01*
X108052857Y-67558023D01*
X108005238Y-67462785D01*
X108005238Y-67177070D01*
X108052857Y-67081832D01*
X108100476Y-67034213D01*
X108195714Y-66986594D01*
X108338572Y-66986594D01*
X108433810Y-67034213D01*
X108481429Y-67081832D01*
X108529048Y-67177070D01*
X108529048Y-67462785D01*
X108481429Y-67558023D01*
X108433810Y-67605642D01*
X108338572Y-67653261D01*
X108195714Y-67653261D01*
X110290953Y-67558023D02*
X110243334Y-67605642D01*
X110100477Y-67653261D01*
X110005239Y-67653261D01*
X109862381Y-67605642D01*
X109767143Y-67510404D01*
X109719524Y-67415166D01*
X109671905Y-67224690D01*
X109671905Y-67081832D01*
X109719524Y-66891356D01*
X109767143Y-66796118D01*
X109862381Y-66700880D01*
X110005239Y-66653261D01*
X110100477Y-66653261D01*
X110243334Y-66700880D01*
X110290953Y-66748499D01*
X110862381Y-67653261D02*
X110767143Y-67605642D01*
X110719524Y-67558023D01*
X110671905Y-67462785D01*
X110671905Y-67177070D01*
X110719524Y-67081832D01*
X110767143Y-67034213D01*
X110862381Y-66986594D01*
X111005239Y-66986594D01*
X111100477Y-67034213D01*
X111148096Y-67081832D01*
X111195715Y-67177070D01*
X111195715Y-67462785D01*
X111148096Y-67558023D01*
X111100477Y-67605642D01*
X111005239Y-67653261D01*
X110862381Y-67653261D01*
X111767143Y-67653261D02*
X111671905Y-67605642D01*
X111624286Y-67510404D01*
X111624286Y-66653261D01*
X112576668Y-66986594D02*
X112576668Y-67653261D01*
X112148096Y-66986594D02*
X112148096Y-67510404D01*
X112195715Y-67605642D01*
X112290953Y-67653261D01*
X112433811Y-67653261D01*
X112529049Y-67605642D01*
X112576668Y-67558023D01*
X113052858Y-67653261D02*
X113052858Y-66986594D01*
X113052858Y-67081832D02*
X113100477Y-67034213D01*
X113195715Y-66986594D01*
X113338573Y-66986594D01*
X113433811Y-67034213D01*
X113481430Y-67129451D01*
X113481430Y-67653261D01*
X113481430Y-67129451D02*
X113529049Y-67034213D01*
X113624287Y-66986594D01*
X113767144Y-66986594D01*
X113862382Y-67034213D01*
X113910001Y-67129451D01*
X113910001Y-67653261D01*
X114386191Y-66986594D02*
X114386191Y-67653261D01*
X114386191Y-67081832D02*
X114433810Y-67034213D01*
X114529048Y-66986594D01*
X114671906Y-66986594D01*
X114767144Y-67034213D01*
X114814763Y-67129451D01*
X114814763Y-67653261D01*
X78231428Y-67653261D02*
X77755237Y-67653261D01*
X77755237Y-66653261D01*
X78564761Y-67129451D02*
X78898095Y-67129451D01*
X79040952Y-67653261D02*
X78564761Y-67653261D01*
X78564761Y-66653261D01*
X79040952Y-66653261D01*
X79469523Y-67653261D02*
X79469523Y-66653261D01*
X79707618Y-66653261D01*
X79850476Y-66700880D01*
X79945714Y-66796118D01*
X79993333Y-66891356D01*
X80040952Y-67081832D01*
X80040952Y-67224690D01*
X79993333Y-67415166D01*
X79945714Y-67510404D01*
X79850476Y-67605642D01*
X79707618Y-67653261D01*
X79469523Y-67653261D01*
X81088571Y-66986594D02*
X81469523Y-66986594D01*
X81231428Y-66653261D02*
X81231428Y-67510404D01*
X81279047Y-67605642D01*
X81374285Y-67653261D01*
X81469523Y-67653261D01*
X81945714Y-67653261D02*
X81850476Y-67605642D01*
X81802857Y-67558023D01*
X81755238Y-67462785D01*
X81755238Y-67177070D01*
X81802857Y-67081832D01*
X81850476Y-67034213D01*
X81945714Y-66986594D01*
X82088572Y-66986594D01*
X82183810Y-67034213D01*
X82231429Y-67081832D01*
X82279048Y-67177070D01*
X82279048Y-67462785D01*
X82231429Y-67558023D01*
X82183810Y-67605642D01*
X82088572Y-67653261D01*
X81945714Y-67653261D01*
X84040953Y-67558023D02*
X83993334Y-67605642D01*
X83850477Y-67653261D01*
X83755239Y-67653261D01*
X83612381Y-67605642D01*
X83517143Y-67510404D01*
X83469524Y-67415166D01*
X83421905Y-67224690D01*
X83421905Y-67081832D01*
X83469524Y-66891356D01*
X83517143Y-66796118D01*
X83612381Y-66700880D01*
X83755239Y-66653261D01*
X83850477Y-66653261D01*
X83993334Y-66700880D01*
X84040953Y-66748499D01*
X84612381Y-67653261D02*
X84517143Y-67605642D01*
X84469524Y-67558023D01*
X84421905Y-67462785D01*
X84421905Y-67177070D01*
X84469524Y-67081832D01*
X84517143Y-67034213D01*
X84612381Y-66986594D01*
X84755239Y-66986594D01*
X84850477Y-67034213D01*
X84898096Y-67081832D01*
X84945715Y-67177070D01*
X84945715Y-67462785D01*
X84898096Y-67558023D01*
X84850477Y-67605642D01*
X84755239Y-67653261D01*
X84612381Y-67653261D01*
X85517143Y-67653261D02*
X85421905Y-67605642D01*
X85374286Y-67510404D01*
X85374286Y-66653261D01*
X86326668Y-66986594D02*
X86326668Y-67653261D01*
X85898096Y-66986594D02*
X85898096Y-67510404D01*
X85945715Y-67605642D01*
X86040953Y-67653261D01*
X86183811Y-67653261D01*
X86279049Y-67605642D01*
X86326668Y-67558023D01*
X86802858Y-67653261D02*
X86802858Y-66986594D01*
X86802858Y-67081832D02*
X86850477Y-67034213D01*
X86945715Y-66986594D01*
X87088573Y-66986594D01*
X87183811Y-67034213D01*
X87231430Y-67129451D01*
X87231430Y-67653261D01*
X87231430Y-67129451D02*
X87279049Y-67034213D01*
X87374287Y-66986594D01*
X87517144Y-66986594D01*
X87612382Y-67034213D01*
X87660001Y-67129451D01*
X87660001Y-67653261D01*
X88136191Y-66986594D02*
X88136191Y-67653261D01*
X88136191Y-67081832D02*
X88183810Y-67034213D01*
X88279048Y-66986594D01*
X88421906Y-66986594D01*
X88517144Y-67034213D01*
X88564763Y-67129451D01*
X88564763Y-67653261D01*
X159990952Y-67653261D02*
X159514761Y-67653261D01*
X159514761Y-66653261D01*
X160324285Y-67129451D02*
X160657619Y-67129451D01*
X160800476Y-67653261D02*
X160324285Y-67653261D01*
X160324285Y-66653261D01*
X160800476Y-66653261D01*
X161229047Y-67653261D02*
X161229047Y-66653261D01*
X161467142Y-66653261D01*
X161610000Y-66700880D01*
X161705238Y-66796118D01*
X161752857Y-66891356D01*
X161800476Y-67081832D01*
X161800476Y-67224690D01*
X161752857Y-67415166D01*
X161705238Y-67510404D01*
X161610000Y-67605642D01*
X161467142Y-67653261D01*
X161229047Y-67653261D01*
X162848095Y-66986594D02*
X163229047Y-66986594D01*
X162990952Y-66653261D02*
X162990952Y-67510404D01*
X163038571Y-67605642D01*
X163133809Y-67653261D01*
X163229047Y-67653261D01*
X163705238Y-67653261D02*
X163610000Y-67605642D01*
X163562381Y-67558023D01*
X163514762Y-67462785D01*
X163514762Y-67177070D01*
X163562381Y-67081832D01*
X163610000Y-67034213D01*
X163705238Y-66986594D01*
X163848096Y-66986594D01*
X163943334Y-67034213D01*
X163990953Y-67081832D01*
X164038572Y-67177070D01*
X164038572Y-67462785D01*
X163990953Y-67558023D01*
X163943334Y-67605642D01*
X163848096Y-67653261D01*
X163705238Y-67653261D01*
X165800477Y-67653261D02*
X165467143Y-67177070D01*
X165229048Y-67653261D02*
X165229048Y-66653261D01*
X165610001Y-66653261D01*
X165705239Y-66700880D01*
X165752858Y-66748499D01*
X165800477Y-66843737D01*
X165800477Y-66986594D01*
X165752858Y-67081832D01*
X165705239Y-67129451D01*
X165610001Y-67177070D01*
X165229048Y-67177070D01*
X166371905Y-67653261D02*
X166276667Y-67605642D01*
X166229048Y-67558023D01*
X166181429Y-67462785D01*
X166181429Y-67177070D01*
X166229048Y-67081832D01*
X166276667Y-67034213D01*
X166371905Y-66986594D01*
X166514763Y-66986594D01*
X166610001Y-67034213D01*
X166657620Y-67081832D01*
X166705239Y-67177070D01*
X166705239Y-67462785D01*
X166657620Y-67558023D01*
X166610001Y-67605642D01*
X166514763Y-67653261D01*
X166371905Y-67653261D01*
X167038572Y-66986594D02*
X167229048Y-67653261D01*
X167419525Y-67177070D01*
X167610001Y-67653261D01*
X167800477Y-66986594D01*
X132490952Y-67653261D02*
X132014761Y-67653261D01*
X132014761Y-66653261D01*
X132824285Y-67129451D02*
X133157619Y-67129451D01*
X133300476Y-67653261D02*
X132824285Y-67653261D01*
X132824285Y-66653261D01*
X133300476Y-66653261D01*
X133729047Y-67653261D02*
X133729047Y-66653261D01*
X133967142Y-66653261D01*
X134110000Y-66700880D01*
X134205238Y-66796118D01*
X134252857Y-66891356D01*
X134300476Y-67081832D01*
X134300476Y-67224690D01*
X134252857Y-67415166D01*
X134205238Y-67510404D01*
X134110000Y-67605642D01*
X133967142Y-67653261D01*
X133729047Y-67653261D01*
X135348095Y-66986594D02*
X135729047Y-66986594D01*
X135490952Y-66653261D02*
X135490952Y-67510404D01*
X135538571Y-67605642D01*
X135633809Y-67653261D01*
X135729047Y-67653261D01*
X136205238Y-67653261D02*
X136110000Y-67605642D01*
X136062381Y-67558023D01*
X136014762Y-67462785D01*
X136014762Y-67177070D01*
X136062381Y-67081832D01*
X136110000Y-67034213D01*
X136205238Y-66986594D01*
X136348096Y-66986594D01*
X136443334Y-67034213D01*
X136490953Y-67081832D01*
X136538572Y-67177070D01*
X136538572Y-67462785D01*
X136490953Y-67558023D01*
X136443334Y-67605642D01*
X136348096Y-67653261D01*
X136205238Y-67653261D01*
X138300477Y-67653261D02*
X137967143Y-67177070D01*
X137729048Y-67653261D02*
X137729048Y-66653261D01*
X138110001Y-66653261D01*
X138205239Y-66700880D01*
X138252858Y-66748499D01*
X138300477Y-66843737D01*
X138300477Y-66986594D01*
X138252858Y-67081832D01*
X138205239Y-67129451D01*
X138110001Y-67177070D01*
X137729048Y-67177070D01*
X138871905Y-67653261D02*
X138776667Y-67605642D01*
X138729048Y-67558023D01*
X138681429Y-67462785D01*
X138681429Y-67177070D01*
X138729048Y-67081832D01*
X138776667Y-67034213D01*
X138871905Y-66986594D01*
X139014763Y-66986594D01*
X139110001Y-67034213D01*
X139157620Y-67081832D01*
X139205239Y-67177070D01*
X139205239Y-67462785D01*
X139157620Y-67558023D01*
X139110001Y-67605642D01*
X139014763Y-67653261D01*
X138871905Y-67653261D01*
X139538572Y-66986594D02*
X139729048Y-67653261D01*
X139919525Y-67177070D01*
X140110001Y-67653261D01*
X140300477Y-66986594D01*
X128821429Y-113285714D02*
X128821429Y-113952381D01*
X128583333Y-112904762D02*
X128345238Y-113619048D01*
X128964286Y-113619048D01*
X129345238Y-113857143D02*
X129392857Y-113904762D01*
X129345238Y-113952381D01*
X129297619Y-113904762D01*
X129345238Y-113857143D01*
X129345238Y-113952381D01*
X129726190Y-112952381D02*
X130392857Y-112952381D01*
X129964285Y-113952381D01*
X130773809Y-113952381D02*
X130773809Y-112952381D01*
X130869047Y-113571429D02*
X131154762Y-113952381D01*
X131154762Y-113285714D02*
X130773809Y-113666667D01*
X128564286Y-116152381D02*
X129183334Y-116152381D01*
X128850000Y-116533333D01*
X128992858Y-116533333D01*
X129088096Y-116580952D01*
X129135715Y-116628571D01*
X129183334Y-116723810D01*
X129183334Y-116961905D01*
X129135715Y-117057143D01*
X129088096Y-117104762D01*
X128992858Y-117152381D01*
X128707143Y-117152381D01*
X128611905Y-117104762D01*
X128564286Y-117057143D01*
X130040477Y-116485714D02*
X130040477Y-117152381D01*
X129802381Y-116104762D02*
X129564286Y-116819048D01*
X130183334Y-116819048D01*
X130754762Y-116152381D02*
X130850001Y-116152381D01*
X130945239Y-116200000D01*
X130992858Y-116247619D01*
X131040477Y-116342857D01*
X131088096Y-116533333D01*
X131088096Y-116771429D01*
X131040477Y-116961905D01*
X130992858Y-117057143D01*
X130945239Y-117104762D01*
X130850001Y-117152381D01*
X130754762Y-117152381D01*
X130659524Y-117104762D01*
X130611905Y-117057143D01*
X130564286Y-116961905D01*
X130516667Y-116771429D01*
X130516667Y-116533333D01*
X130564286Y-116342857D01*
X130611905Y-116247619D01*
X130659524Y-116200000D01*
X130754762Y-116152381D01*
X128564286Y-119502381D02*
X129183334Y-119502381D01*
X128850000Y-119883333D01*
X128992858Y-119883333D01*
X129088096Y-119930952D01*
X129135715Y-119978571D01*
X129183334Y-120073810D01*
X129183334Y-120311905D01*
X129135715Y-120407143D01*
X129088096Y-120454762D01*
X128992858Y-120502381D01*
X128707143Y-120502381D01*
X128611905Y-120454762D01*
X128564286Y-120407143D01*
X130040477Y-119835714D02*
X130040477Y-120502381D01*
X129802381Y-119454762D02*
X129564286Y-120169048D01*
X130183334Y-120169048D01*
X130754762Y-119502381D02*
X130850001Y-119502381D01*
X130945239Y-119550000D01*
X130992858Y-119597619D01*
X131040477Y-119692857D01*
X131088096Y-119883333D01*
X131088096Y-120121429D01*
X131040477Y-120311905D01*
X130992858Y-120407143D01*
X130945239Y-120454762D01*
X130850001Y-120502381D01*
X130754762Y-120502381D01*
X130659524Y-120454762D01*
X130611905Y-120407143D01*
X130564286Y-120311905D01*
X130516667Y-120121429D01*
X130516667Y-119883333D01*
X130564286Y-119692857D01*
X130611905Y-119597619D01*
X130659524Y-119550000D01*
X130754762Y-119502381D01*
X156221429Y-113325714D02*
X156221429Y-113992381D01*
X155983333Y-112944762D02*
X155745238Y-113659048D01*
X156364286Y-113659048D01*
X156745238Y-113897143D02*
X156792857Y-113944762D01*
X156745238Y-113992381D01*
X156697619Y-113944762D01*
X156745238Y-113897143D01*
X156745238Y-113992381D01*
X157126190Y-112992381D02*
X157792857Y-112992381D01*
X157364285Y-113992381D01*
X158173809Y-113992381D02*
X158173809Y-112992381D01*
X158269047Y-113611429D02*
X158554762Y-113992381D01*
X158554762Y-113325714D02*
X158173809Y-113706667D01*
X156152381Y-116680952D02*
X156057143Y-116633333D01*
X156009524Y-116585714D01*
X155961905Y-116490476D01*
X155961905Y-116442857D01*
X156009524Y-116347619D01*
X156057143Y-116300000D01*
X156152381Y-116252381D01*
X156342858Y-116252381D01*
X156438096Y-116300000D01*
X156485715Y-116347619D01*
X156533334Y-116442857D01*
X156533334Y-116490476D01*
X156485715Y-116585714D01*
X156438096Y-116633333D01*
X156342858Y-116680952D01*
X156152381Y-116680952D01*
X156057143Y-116728571D01*
X156009524Y-116776190D01*
X155961905Y-116871429D01*
X155961905Y-117061905D01*
X156009524Y-117157143D01*
X156057143Y-117204762D01*
X156152381Y-117252381D01*
X156342858Y-117252381D01*
X156438096Y-117204762D01*
X156485715Y-117157143D01*
X156533334Y-117061905D01*
X156533334Y-116871429D01*
X156485715Y-116776190D01*
X156438096Y-116728571D01*
X156342858Y-116680952D01*
X156914286Y-116347619D02*
X156961905Y-116300000D01*
X157057143Y-116252381D01*
X157295239Y-116252381D01*
X157390477Y-116300000D01*
X157438096Y-116347619D01*
X157485715Y-116442857D01*
X157485715Y-116538095D01*
X157438096Y-116680952D01*
X156866667Y-117252381D01*
X157485715Y-117252381D01*
X158104762Y-116252381D02*
X158200001Y-116252381D01*
X158295239Y-116300000D01*
X158342858Y-116347619D01*
X158390477Y-116442857D01*
X158438096Y-116633333D01*
X158438096Y-116871429D01*
X158390477Y-117061905D01*
X158342858Y-117157143D01*
X158295239Y-117204762D01*
X158200001Y-117252381D01*
X158104762Y-117252381D01*
X158009524Y-117204762D01*
X157961905Y-117157143D01*
X157914286Y-117061905D01*
X157866667Y-116871429D01*
X157866667Y-116633333D01*
X157914286Y-116442857D01*
X157961905Y-116347619D01*
X158009524Y-116300000D01*
X158104762Y-116252381D01*
X156152381Y-119880952D02*
X156057143Y-119833333D01*
X156009524Y-119785714D01*
X155961905Y-119690476D01*
X155961905Y-119642857D01*
X156009524Y-119547619D01*
X156057143Y-119500000D01*
X156152381Y-119452381D01*
X156342858Y-119452381D01*
X156438096Y-119500000D01*
X156485715Y-119547619D01*
X156533334Y-119642857D01*
X156533334Y-119690476D01*
X156485715Y-119785714D01*
X156438096Y-119833333D01*
X156342858Y-119880952D01*
X156152381Y-119880952D01*
X156057143Y-119928571D01*
X156009524Y-119976190D01*
X155961905Y-120071429D01*
X155961905Y-120261905D01*
X156009524Y-120357143D01*
X156057143Y-120404762D01*
X156152381Y-120452381D01*
X156342858Y-120452381D01*
X156438096Y-120404762D01*
X156485715Y-120357143D01*
X156533334Y-120261905D01*
X156533334Y-120071429D01*
X156485715Y-119976190D01*
X156438096Y-119928571D01*
X156342858Y-119880952D01*
X156914286Y-119547619D02*
X156961905Y-119500000D01*
X157057143Y-119452381D01*
X157295239Y-119452381D01*
X157390477Y-119500000D01*
X157438096Y-119547619D01*
X157485715Y-119642857D01*
X157485715Y-119738095D01*
X157438096Y-119880952D01*
X156866667Y-120452381D01*
X157485715Y-120452381D01*
X158104762Y-119452381D02*
X158200001Y-119452381D01*
X158295239Y-119500000D01*
X158342858Y-119547619D01*
X158390477Y-119642857D01*
X158438096Y-119833333D01*
X158438096Y-120071429D01*
X158390477Y-120261905D01*
X158342858Y-120357143D01*
X158295239Y-120404762D01*
X158200001Y-120452381D01*
X158104762Y-120452381D01*
X158009524Y-120404762D01*
X157961905Y-120357143D01*
X157914286Y-120261905D01*
X157866667Y-120071429D01*
X157866667Y-119833333D01*
X157914286Y-119642857D01*
X157961905Y-119547619D01*
X158009524Y-119500000D01*
X158104762Y-119452381D01*
X127857143Y-98852381D02*
X127952382Y-98852381D01*
X128047620Y-98900000D01*
X128095239Y-98947619D01*
X128142858Y-99042857D01*
X128190477Y-99233333D01*
X128190477Y-99471429D01*
X128142858Y-99661905D01*
X128095239Y-99757143D01*
X128047620Y-99804762D01*
X127952382Y-99852381D01*
X127857143Y-99852381D01*
X127761905Y-99804762D01*
X127714286Y-99757143D01*
X127666667Y-99661905D01*
X127619048Y-99471429D01*
X127619048Y-99233333D01*
X127666667Y-99042857D01*
X127714286Y-98947619D01*
X127761905Y-98900000D01*
X127857143Y-98852381D01*
X128619048Y-99757143D02*
X128666667Y-99804762D01*
X128619048Y-99852381D01*
X128571429Y-99804762D01*
X128619048Y-99757143D01*
X128619048Y-99852381D01*
X129619048Y-99852381D02*
X129047619Y-99852381D01*
X129333333Y-99852381D02*
X129333333Y-98852381D01*
X129238095Y-98995238D01*
X129142857Y-99090476D01*
X129047619Y-99138095D01*
X130476191Y-99185714D02*
X130476191Y-99852381D01*
X130047619Y-99185714D02*
X130047619Y-99709524D01*
X130095238Y-99804762D01*
X130190476Y-99852381D01*
X130333334Y-99852381D01*
X130428572Y-99804762D01*
X130476191Y-99757143D01*
X131285715Y-99328571D02*
X130952381Y-99328571D01*
X130952381Y-99852381D02*
X130952381Y-98852381D01*
X131428572Y-98852381D01*
X137957143Y-98852381D02*
X138052382Y-98852381D01*
X138147620Y-98900000D01*
X138195239Y-98947619D01*
X138242858Y-99042857D01*
X138290477Y-99233333D01*
X138290477Y-99471429D01*
X138242858Y-99661905D01*
X138195239Y-99757143D01*
X138147620Y-99804762D01*
X138052382Y-99852381D01*
X137957143Y-99852381D01*
X137861905Y-99804762D01*
X137814286Y-99757143D01*
X137766667Y-99661905D01*
X137719048Y-99471429D01*
X137719048Y-99233333D01*
X137766667Y-99042857D01*
X137814286Y-98947619D01*
X137861905Y-98900000D01*
X137957143Y-98852381D01*
X138719048Y-99757143D02*
X138766667Y-99804762D01*
X138719048Y-99852381D01*
X138671429Y-99804762D01*
X138719048Y-99757143D01*
X138719048Y-99852381D01*
X139719048Y-99852381D02*
X139147619Y-99852381D01*
X139433333Y-99852381D02*
X139433333Y-98852381D01*
X139338095Y-98995238D01*
X139242857Y-99090476D01*
X139147619Y-99138095D01*
X140576191Y-99185714D02*
X140576191Y-99852381D01*
X140147619Y-99185714D02*
X140147619Y-99709524D01*
X140195238Y-99804762D01*
X140290476Y-99852381D01*
X140433334Y-99852381D01*
X140528572Y-99804762D01*
X140576191Y-99757143D01*
X141385715Y-99328571D02*
X141052381Y-99328571D01*
X141052381Y-99852381D02*
X141052381Y-98852381D01*
X141528572Y-98852381D01*
X158604762Y-101952381D02*
X158033333Y-101952381D01*
X158319047Y-101952381D02*
X158319047Y-100952381D01*
X158223809Y-101095238D01*
X158128571Y-101190476D01*
X158033333Y-101238095D01*
X159461905Y-101285714D02*
X159461905Y-101952381D01*
X159033333Y-101285714D02*
X159033333Y-101809524D01*
X159080952Y-101904762D01*
X159176190Y-101952381D01*
X159319048Y-101952381D01*
X159414286Y-101904762D01*
X159461905Y-101857143D01*
X160271429Y-101428571D02*
X159938095Y-101428571D01*
X159938095Y-101952381D02*
X159938095Y-100952381D01*
X160414286Y-100952381D01*
X149004762Y-102052381D02*
X148433333Y-102052381D01*
X148719047Y-102052381D02*
X148719047Y-101052381D01*
X148623809Y-101195238D01*
X148528571Y-101290476D01*
X148433333Y-101338095D01*
X149861905Y-101385714D02*
X149861905Y-102052381D01*
X149433333Y-101385714D02*
X149433333Y-101909524D01*
X149480952Y-102004762D01*
X149576190Y-102052381D01*
X149719048Y-102052381D01*
X149814286Y-102004762D01*
X149861905Y-101957143D01*
X150671429Y-101528571D02*
X150338095Y-101528571D01*
X150338095Y-102052381D02*
X150338095Y-101052381D01*
X150814286Y-101052381D01*
X99514286Y-86552381D02*
X100133334Y-86552381D01*
X99800000Y-86933333D01*
X99942858Y-86933333D01*
X100038096Y-86980952D01*
X100085715Y-87028571D01*
X100133334Y-87123810D01*
X100133334Y-87361905D01*
X100085715Y-87457143D01*
X100038096Y-87504762D01*
X99942858Y-87552381D01*
X99657143Y-87552381D01*
X99561905Y-87504762D01*
X99514286Y-87457143D01*
X100466667Y-86552381D02*
X101085715Y-86552381D01*
X100752381Y-86933333D01*
X100895239Y-86933333D01*
X100990477Y-86980952D01*
X101038096Y-87028571D01*
X101085715Y-87123810D01*
X101085715Y-87361905D01*
X101038096Y-87457143D01*
X100990477Y-87504762D01*
X100895239Y-87552381D01*
X100609524Y-87552381D01*
X100514286Y-87504762D01*
X100466667Y-87457143D01*
X101704762Y-86552381D02*
X101800001Y-86552381D01*
X101895239Y-86600000D01*
X101942858Y-86647619D01*
X101990477Y-86742857D01*
X102038096Y-86933333D01*
X102038096Y-87171429D01*
X101990477Y-87361905D01*
X101942858Y-87457143D01*
X101895239Y-87504762D01*
X101800001Y-87552381D01*
X101704762Y-87552381D01*
X101609524Y-87504762D01*
X101561905Y-87457143D01*
X101514286Y-87361905D01*
X101466667Y-87171429D01*
X101466667Y-86933333D01*
X101514286Y-86742857D01*
X101561905Y-86647619D01*
X101609524Y-86600000D01*
X101704762Y-86552381D01*
X101914286Y-73852381D02*
X102533334Y-73852381D01*
X102200000Y-74233333D01*
X102342858Y-74233333D01*
X102438096Y-74280952D01*
X102485715Y-74328571D01*
X102533334Y-74423810D01*
X102533334Y-74661905D01*
X102485715Y-74757143D01*
X102438096Y-74804762D01*
X102342858Y-74852381D01*
X102057143Y-74852381D01*
X101961905Y-74804762D01*
X101914286Y-74757143D01*
X102866667Y-73852381D02*
X103485715Y-73852381D01*
X103152381Y-74233333D01*
X103295239Y-74233333D01*
X103390477Y-74280952D01*
X103438096Y-74328571D01*
X103485715Y-74423810D01*
X103485715Y-74661905D01*
X103438096Y-74757143D01*
X103390477Y-74804762D01*
X103295239Y-74852381D01*
X103009524Y-74852381D01*
X102914286Y-74804762D01*
X102866667Y-74757143D01*
X104104762Y-73852381D02*
X104200001Y-73852381D01*
X104295239Y-73900000D01*
X104342858Y-73947619D01*
X104390477Y-74042857D01*
X104438096Y-74233333D01*
X104438096Y-74471429D01*
X104390477Y-74661905D01*
X104342858Y-74757143D01*
X104295239Y-74804762D01*
X104200001Y-74852381D01*
X104104762Y-74852381D01*
X104009524Y-74804762D01*
X103961905Y-74757143D01*
X103914286Y-74661905D01*
X103866667Y-74471429D01*
X103866667Y-74233333D01*
X103914286Y-74042857D01*
X103961905Y-73947619D01*
X104009524Y-73900000D01*
X104104762Y-73852381D01*
X106914286Y-73752381D02*
X107533334Y-73752381D01*
X107200000Y-74133333D01*
X107342858Y-74133333D01*
X107438096Y-74180952D01*
X107485715Y-74228571D01*
X107533334Y-74323810D01*
X107533334Y-74561905D01*
X107485715Y-74657143D01*
X107438096Y-74704762D01*
X107342858Y-74752381D01*
X107057143Y-74752381D01*
X106961905Y-74704762D01*
X106914286Y-74657143D01*
X107866667Y-73752381D02*
X108485715Y-73752381D01*
X108152381Y-74133333D01*
X108295239Y-74133333D01*
X108390477Y-74180952D01*
X108438096Y-74228571D01*
X108485715Y-74323810D01*
X108485715Y-74561905D01*
X108438096Y-74657143D01*
X108390477Y-74704762D01*
X108295239Y-74752381D01*
X108009524Y-74752381D01*
X107914286Y-74704762D01*
X107866667Y-74657143D01*
X109104762Y-73752381D02*
X109200001Y-73752381D01*
X109295239Y-73800000D01*
X109342858Y-73847619D01*
X109390477Y-73942857D01*
X109438096Y-74133333D01*
X109438096Y-74371429D01*
X109390477Y-74561905D01*
X109342858Y-74657143D01*
X109295239Y-74704762D01*
X109200001Y-74752381D01*
X109104762Y-74752381D01*
X109009524Y-74704762D01*
X108961905Y-74657143D01*
X108914286Y-74561905D01*
X108866667Y-74371429D01*
X108866667Y-74133333D01*
X108914286Y-73942857D01*
X108961905Y-73847619D01*
X109009524Y-73800000D01*
X109104762Y-73752381D01*
X109214286Y-86452381D02*
X109833334Y-86452381D01*
X109500000Y-86833333D01*
X109642858Y-86833333D01*
X109738096Y-86880952D01*
X109785715Y-86928571D01*
X109833334Y-87023810D01*
X109833334Y-87261905D01*
X109785715Y-87357143D01*
X109738096Y-87404762D01*
X109642858Y-87452381D01*
X109357143Y-87452381D01*
X109261905Y-87404762D01*
X109214286Y-87357143D01*
X110166667Y-86452381D02*
X110785715Y-86452381D01*
X110452381Y-86833333D01*
X110595239Y-86833333D01*
X110690477Y-86880952D01*
X110738096Y-86928571D01*
X110785715Y-87023810D01*
X110785715Y-87261905D01*
X110738096Y-87357143D01*
X110690477Y-87404762D01*
X110595239Y-87452381D01*
X110309524Y-87452381D01*
X110214286Y-87404762D01*
X110166667Y-87357143D01*
X111404762Y-86452381D02*
X111500001Y-86452381D01*
X111595239Y-86500000D01*
X111642858Y-86547619D01*
X111690477Y-86642857D01*
X111738096Y-86833333D01*
X111738096Y-87071429D01*
X111690477Y-87261905D01*
X111642858Y-87357143D01*
X111595239Y-87404762D01*
X111500001Y-87452381D01*
X111404762Y-87452381D01*
X111309524Y-87404762D01*
X111261905Y-87357143D01*
X111214286Y-87261905D01*
X111166667Y-87071429D01*
X111166667Y-86833333D01*
X111214286Y-86642857D01*
X111261905Y-86547619D01*
X111309524Y-86500000D01*
X111404762Y-86452381D01*
X111914286Y-73752381D02*
X112533334Y-73752381D01*
X112200000Y-74133333D01*
X112342858Y-74133333D01*
X112438096Y-74180952D01*
X112485715Y-74228571D01*
X112533334Y-74323810D01*
X112533334Y-74561905D01*
X112485715Y-74657143D01*
X112438096Y-74704762D01*
X112342858Y-74752381D01*
X112057143Y-74752381D01*
X111961905Y-74704762D01*
X111914286Y-74657143D01*
X112866667Y-73752381D02*
X113485715Y-73752381D01*
X113152381Y-74133333D01*
X113295239Y-74133333D01*
X113390477Y-74180952D01*
X113438096Y-74228571D01*
X113485715Y-74323810D01*
X113485715Y-74561905D01*
X113438096Y-74657143D01*
X113390477Y-74704762D01*
X113295239Y-74752381D01*
X113009524Y-74752381D01*
X112914286Y-74704762D01*
X112866667Y-74657143D01*
X114104762Y-73752381D02*
X114200001Y-73752381D01*
X114295239Y-73800000D01*
X114342858Y-73847619D01*
X114390477Y-73942857D01*
X114438096Y-74133333D01*
X114438096Y-74371429D01*
X114390477Y-74561905D01*
X114342858Y-74657143D01*
X114295239Y-74704762D01*
X114200001Y-74752381D01*
X114104762Y-74752381D01*
X114009524Y-74704762D01*
X113961905Y-74657143D01*
X113914286Y-74561905D01*
X113866667Y-74371429D01*
X113866667Y-74133333D01*
X113914286Y-73942857D01*
X113961905Y-73847619D01*
X114009524Y-73800000D01*
X114104762Y-73752381D01*
X114214286Y-86452381D02*
X114833334Y-86452381D01*
X114500000Y-86833333D01*
X114642858Y-86833333D01*
X114738096Y-86880952D01*
X114785715Y-86928571D01*
X114833334Y-87023810D01*
X114833334Y-87261905D01*
X114785715Y-87357143D01*
X114738096Y-87404762D01*
X114642858Y-87452381D01*
X114357143Y-87452381D01*
X114261905Y-87404762D01*
X114214286Y-87357143D01*
X115166667Y-86452381D02*
X115785715Y-86452381D01*
X115452381Y-86833333D01*
X115595239Y-86833333D01*
X115690477Y-86880952D01*
X115738096Y-86928571D01*
X115785715Y-87023810D01*
X115785715Y-87261905D01*
X115738096Y-87357143D01*
X115690477Y-87404762D01*
X115595239Y-87452381D01*
X115309524Y-87452381D01*
X115214286Y-87404762D01*
X115166667Y-87357143D01*
X116404762Y-86452381D02*
X116500001Y-86452381D01*
X116595239Y-86500000D01*
X116642858Y-86547619D01*
X116690477Y-86642857D01*
X116738096Y-86833333D01*
X116738096Y-87071429D01*
X116690477Y-87261905D01*
X116642858Y-87357143D01*
X116595239Y-87404762D01*
X116500001Y-87452381D01*
X116404762Y-87452381D01*
X116309524Y-87404762D01*
X116261905Y-87357143D01*
X116214286Y-87261905D01*
X116166667Y-87071429D01*
X116166667Y-86833333D01*
X116214286Y-86642857D01*
X116261905Y-86547619D01*
X116309524Y-86500000D01*
X116404762Y-86452381D01*
X117114286Y-73852381D02*
X117733334Y-73852381D01*
X117400000Y-74233333D01*
X117542858Y-74233333D01*
X117638096Y-74280952D01*
X117685715Y-74328571D01*
X117733334Y-74423810D01*
X117733334Y-74661905D01*
X117685715Y-74757143D01*
X117638096Y-74804762D01*
X117542858Y-74852381D01*
X117257143Y-74852381D01*
X117161905Y-74804762D01*
X117114286Y-74757143D01*
X118066667Y-73852381D02*
X118685715Y-73852381D01*
X118352381Y-74233333D01*
X118495239Y-74233333D01*
X118590477Y-74280952D01*
X118638096Y-74328571D01*
X118685715Y-74423810D01*
X118685715Y-74661905D01*
X118638096Y-74757143D01*
X118590477Y-74804762D01*
X118495239Y-74852381D01*
X118209524Y-74852381D01*
X118114286Y-74804762D01*
X118066667Y-74757143D01*
X119304762Y-73852381D02*
X119400001Y-73852381D01*
X119495239Y-73900000D01*
X119542858Y-73947619D01*
X119590477Y-74042857D01*
X119638096Y-74233333D01*
X119638096Y-74471429D01*
X119590477Y-74661905D01*
X119542858Y-74757143D01*
X119495239Y-74804762D01*
X119400001Y-74852381D01*
X119304762Y-74852381D01*
X119209524Y-74804762D01*
X119161905Y-74757143D01*
X119114286Y-74661905D01*
X119066667Y-74471429D01*
X119066667Y-74233333D01*
X119114286Y-74042857D01*
X119161905Y-73947619D01*
X119209524Y-73900000D01*
X119304762Y-73852381D01*
X72714286Y-86452381D02*
X73333334Y-86452381D01*
X73000000Y-86833333D01*
X73142858Y-86833333D01*
X73238096Y-86880952D01*
X73285715Y-86928571D01*
X73333334Y-87023810D01*
X73333334Y-87261905D01*
X73285715Y-87357143D01*
X73238096Y-87404762D01*
X73142858Y-87452381D01*
X72857143Y-87452381D01*
X72761905Y-87404762D01*
X72714286Y-87357143D01*
X73666667Y-86452381D02*
X74285715Y-86452381D01*
X73952381Y-86833333D01*
X74095239Y-86833333D01*
X74190477Y-86880952D01*
X74238096Y-86928571D01*
X74285715Y-87023810D01*
X74285715Y-87261905D01*
X74238096Y-87357143D01*
X74190477Y-87404762D01*
X74095239Y-87452381D01*
X73809524Y-87452381D01*
X73714286Y-87404762D01*
X73666667Y-87357143D01*
X74904762Y-86452381D02*
X75000001Y-86452381D01*
X75095239Y-86500000D01*
X75142858Y-86547619D01*
X75190477Y-86642857D01*
X75238096Y-86833333D01*
X75238096Y-87071429D01*
X75190477Y-87261905D01*
X75142858Y-87357143D01*
X75095239Y-87404762D01*
X75000001Y-87452381D01*
X74904762Y-87452381D01*
X74809524Y-87404762D01*
X74761905Y-87357143D01*
X74714286Y-87261905D01*
X74666667Y-87071429D01*
X74666667Y-86833333D01*
X74714286Y-86642857D01*
X74761905Y-86547619D01*
X74809524Y-86500000D01*
X74904762Y-86452381D01*
X75714286Y-73852381D02*
X76333334Y-73852381D01*
X76000000Y-74233333D01*
X76142858Y-74233333D01*
X76238096Y-74280952D01*
X76285715Y-74328571D01*
X76333334Y-74423810D01*
X76333334Y-74661905D01*
X76285715Y-74757143D01*
X76238096Y-74804762D01*
X76142858Y-74852381D01*
X75857143Y-74852381D01*
X75761905Y-74804762D01*
X75714286Y-74757143D01*
X76666667Y-73852381D02*
X77285715Y-73852381D01*
X76952381Y-74233333D01*
X77095239Y-74233333D01*
X77190477Y-74280952D01*
X77238096Y-74328571D01*
X77285715Y-74423810D01*
X77285715Y-74661905D01*
X77238096Y-74757143D01*
X77190477Y-74804762D01*
X77095239Y-74852381D01*
X76809524Y-74852381D01*
X76714286Y-74804762D01*
X76666667Y-74757143D01*
X77904762Y-73852381D02*
X78000001Y-73852381D01*
X78095239Y-73900000D01*
X78142858Y-73947619D01*
X78190477Y-74042857D01*
X78238096Y-74233333D01*
X78238096Y-74471429D01*
X78190477Y-74661905D01*
X78142858Y-74757143D01*
X78095239Y-74804762D01*
X78000001Y-74852381D01*
X77904762Y-74852381D01*
X77809524Y-74804762D01*
X77761905Y-74757143D01*
X77714286Y-74661905D01*
X77666667Y-74471429D01*
X77666667Y-74233333D01*
X77714286Y-74042857D01*
X77761905Y-73947619D01*
X77809524Y-73900000D01*
X77904762Y-73852381D01*
X78214286Y-86452381D02*
X78833334Y-86452381D01*
X78500000Y-86833333D01*
X78642858Y-86833333D01*
X78738096Y-86880952D01*
X78785715Y-86928571D01*
X78833334Y-87023810D01*
X78833334Y-87261905D01*
X78785715Y-87357143D01*
X78738096Y-87404762D01*
X78642858Y-87452381D01*
X78357143Y-87452381D01*
X78261905Y-87404762D01*
X78214286Y-87357143D01*
X79166667Y-86452381D02*
X79785715Y-86452381D01*
X79452381Y-86833333D01*
X79595239Y-86833333D01*
X79690477Y-86880952D01*
X79738096Y-86928571D01*
X79785715Y-87023810D01*
X79785715Y-87261905D01*
X79738096Y-87357143D01*
X79690477Y-87404762D01*
X79595239Y-87452381D01*
X79309524Y-87452381D01*
X79214286Y-87404762D01*
X79166667Y-87357143D01*
X80404762Y-86452381D02*
X80500001Y-86452381D01*
X80595239Y-86500000D01*
X80642858Y-86547619D01*
X80690477Y-86642857D01*
X80738096Y-86833333D01*
X80738096Y-87071429D01*
X80690477Y-87261905D01*
X80642858Y-87357143D01*
X80595239Y-87404762D01*
X80500001Y-87452381D01*
X80404762Y-87452381D01*
X80309524Y-87404762D01*
X80261905Y-87357143D01*
X80214286Y-87261905D01*
X80166667Y-87071429D01*
X80166667Y-86833333D01*
X80214286Y-86642857D01*
X80261905Y-86547619D01*
X80309524Y-86500000D01*
X80404762Y-86452381D01*
X80714286Y-73852381D02*
X81333334Y-73852381D01*
X81000000Y-74233333D01*
X81142858Y-74233333D01*
X81238096Y-74280952D01*
X81285715Y-74328571D01*
X81333334Y-74423810D01*
X81333334Y-74661905D01*
X81285715Y-74757143D01*
X81238096Y-74804762D01*
X81142858Y-74852381D01*
X80857143Y-74852381D01*
X80761905Y-74804762D01*
X80714286Y-74757143D01*
X81666667Y-73852381D02*
X82285715Y-73852381D01*
X81952381Y-74233333D01*
X82095239Y-74233333D01*
X82190477Y-74280952D01*
X82238096Y-74328571D01*
X82285715Y-74423810D01*
X82285715Y-74661905D01*
X82238096Y-74757143D01*
X82190477Y-74804762D01*
X82095239Y-74852381D01*
X81809524Y-74852381D01*
X81714286Y-74804762D01*
X81666667Y-74757143D01*
X82904762Y-73852381D02*
X83000001Y-73852381D01*
X83095239Y-73900000D01*
X83142858Y-73947619D01*
X83190477Y-74042857D01*
X83238096Y-74233333D01*
X83238096Y-74471429D01*
X83190477Y-74661905D01*
X83142858Y-74757143D01*
X83095239Y-74804762D01*
X83000001Y-74852381D01*
X82904762Y-74852381D01*
X82809524Y-74804762D01*
X82761905Y-74757143D01*
X82714286Y-74661905D01*
X82666667Y-74471429D01*
X82666667Y-74233333D01*
X82714286Y-74042857D01*
X82761905Y-73947619D01*
X82809524Y-73900000D01*
X82904762Y-73852381D01*
X83214286Y-86452381D02*
X83833334Y-86452381D01*
X83500000Y-86833333D01*
X83642858Y-86833333D01*
X83738096Y-86880952D01*
X83785715Y-86928571D01*
X83833334Y-87023810D01*
X83833334Y-87261905D01*
X83785715Y-87357143D01*
X83738096Y-87404762D01*
X83642858Y-87452381D01*
X83357143Y-87452381D01*
X83261905Y-87404762D01*
X83214286Y-87357143D01*
X84166667Y-86452381D02*
X84785715Y-86452381D01*
X84452381Y-86833333D01*
X84595239Y-86833333D01*
X84690477Y-86880952D01*
X84738096Y-86928571D01*
X84785715Y-87023810D01*
X84785715Y-87261905D01*
X84738096Y-87357143D01*
X84690477Y-87404762D01*
X84595239Y-87452381D01*
X84309524Y-87452381D01*
X84214286Y-87404762D01*
X84166667Y-87357143D01*
X85404762Y-86452381D02*
X85500001Y-86452381D01*
X85595239Y-86500000D01*
X85642858Y-86547619D01*
X85690477Y-86642857D01*
X85738096Y-86833333D01*
X85738096Y-87071429D01*
X85690477Y-87261905D01*
X85642858Y-87357143D01*
X85595239Y-87404762D01*
X85500001Y-87452381D01*
X85404762Y-87452381D01*
X85309524Y-87404762D01*
X85261905Y-87357143D01*
X85214286Y-87261905D01*
X85166667Y-87071429D01*
X85166667Y-86833333D01*
X85214286Y-86642857D01*
X85261905Y-86547619D01*
X85309524Y-86500000D01*
X85404762Y-86452381D01*
X85914286Y-73852381D02*
X86533334Y-73852381D01*
X86200000Y-74233333D01*
X86342858Y-74233333D01*
X86438096Y-74280952D01*
X86485715Y-74328571D01*
X86533334Y-74423810D01*
X86533334Y-74661905D01*
X86485715Y-74757143D01*
X86438096Y-74804762D01*
X86342858Y-74852381D01*
X86057143Y-74852381D01*
X85961905Y-74804762D01*
X85914286Y-74757143D01*
X86866667Y-73852381D02*
X87485715Y-73852381D01*
X87152381Y-74233333D01*
X87295239Y-74233333D01*
X87390477Y-74280952D01*
X87438096Y-74328571D01*
X87485715Y-74423810D01*
X87485715Y-74661905D01*
X87438096Y-74757143D01*
X87390477Y-74804762D01*
X87295239Y-74852381D01*
X87009524Y-74852381D01*
X86914286Y-74804762D01*
X86866667Y-74757143D01*
X88104762Y-73852381D02*
X88200001Y-73852381D01*
X88295239Y-73900000D01*
X88342858Y-73947619D01*
X88390477Y-74042857D01*
X88438096Y-74233333D01*
X88438096Y-74471429D01*
X88390477Y-74661905D01*
X88342858Y-74757143D01*
X88295239Y-74804762D01*
X88200001Y-74852381D01*
X88104762Y-74852381D01*
X88009524Y-74804762D01*
X87961905Y-74757143D01*
X87914286Y-74661905D01*
X87866667Y-74471429D01*
X87866667Y-74233333D01*
X87914286Y-74042857D01*
X87961905Y-73947619D01*
X88009524Y-73900000D01*
X88104762Y-73852381D01*
X88214286Y-86452381D02*
X88833334Y-86452381D01*
X88500000Y-86833333D01*
X88642858Y-86833333D01*
X88738096Y-86880952D01*
X88785715Y-86928571D01*
X88833334Y-87023810D01*
X88833334Y-87261905D01*
X88785715Y-87357143D01*
X88738096Y-87404762D01*
X88642858Y-87452381D01*
X88357143Y-87452381D01*
X88261905Y-87404762D01*
X88214286Y-87357143D01*
X89166667Y-86452381D02*
X89785715Y-86452381D01*
X89452381Y-86833333D01*
X89595239Y-86833333D01*
X89690477Y-86880952D01*
X89738096Y-86928571D01*
X89785715Y-87023810D01*
X89785715Y-87261905D01*
X89738096Y-87357143D01*
X89690477Y-87404762D01*
X89595239Y-87452381D01*
X89309524Y-87452381D01*
X89214286Y-87404762D01*
X89166667Y-87357143D01*
X90404762Y-86452381D02*
X90500001Y-86452381D01*
X90595239Y-86500000D01*
X90642858Y-86547619D01*
X90690477Y-86642857D01*
X90738096Y-86833333D01*
X90738096Y-87071429D01*
X90690477Y-87261905D01*
X90642858Y-87357143D01*
X90595239Y-87404762D01*
X90500001Y-87452381D01*
X90404762Y-87452381D01*
X90309524Y-87404762D01*
X90261905Y-87357143D01*
X90214286Y-87261905D01*
X90166667Y-87071429D01*
X90166667Y-86833333D01*
X90214286Y-86642857D01*
X90261905Y-86547619D01*
X90309524Y-86500000D01*
X90404762Y-86452381D01*
X90914286Y-73852381D02*
X91533334Y-73852381D01*
X91200000Y-74233333D01*
X91342858Y-74233333D01*
X91438096Y-74280952D01*
X91485715Y-74328571D01*
X91533334Y-74423810D01*
X91533334Y-74661905D01*
X91485715Y-74757143D01*
X91438096Y-74804762D01*
X91342858Y-74852381D01*
X91057143Y-74852381D01*
X90961905Y-74804762D01*
X90914286Y-74757143D01*
X91866667Y-73852381D02*
X92485715Y-73852381D01*
X92152381Y-74233333D01*
X92295239Y-74233333D01*
X92390477Y-74280952D01*
X92438096Y-74328571D01*
X92485715Y-74423810D01*
X92485715Y-74661905D01*
X92438096Y-74757143D01*
X92390477Y-74804762D01*
X92295239Y-74852381D01*
X92009524Y-74852381D01*
X91914286Y-74804762D01*
X91866667Y-74757143D01*
X93104762Y-73852381D02*
X93200001Y-73852381D01*
X93295239Y-73900000D01*
X93342858Y-73947619D01*
X93390477Y-74042857D01*
X93438096Y-74233333D01*
X93438096Y-74471429D01*
X93390477Y-74661905D01*
X93342858Y-74757143D01*
X93295239Y-74804762D01*
X93200001Y-74852381D01*
X93104762Y-74852381D01*
X93009524Y-74804762D01*
X92961905Y-74757143D01*
X92914286Y-74661905D01*
X92866667Y-74471429D01*
X92866667Y-74233333D01*
X92914286Y-74042857D01*
X92961905Y-73947619D01*
X93009524Y-73900000D01*
X93104762Y-73852381D01*
X68738096Y-67850000D02*
X68642858Y-67802381D01*
X68500001Y-67802381D01*
X68357143Y-67850000D01*
X68261905Y-67945238D01*
X68214286Y-68040476D01*
X68166667Y-68230952D01*
X68166667Y-68373810D01*
X68214286Y-68564286D01*
X68261905Y-68659524D01*
X68357143Y-68754762D01*
X68500001Y-68802381D01*
X68595239Y-68802381D01*
X68738096Y-68754762D01*
X68785715Y-68707143D01*
X68785715Y-68373810D01*
X68595239Y-68373810D01*
X69214286Y-68802381D02*
X69214286Y-67802381D01*
X69785715Y-68802381D01*
X69785715Y-67802381D01*
X70261905Y-68802381D02*
X70261905Y-67802381D01*
X70500000Y-67802381D01*
X70642858Y-67850000D01*
X70738096Y-67945238D01*
X70785715Y-68040476D01*
X70833334Y-68230952D01*
X70833334Y-68373810D01*
X70785715Y-68564286D01*
X70738096Y-68659524D01*
X70642858Y-68754762D01*
X70500000Y-68802381D01*
X70261905Y-68802381D01*
M02*
