G04 #@! TF.FileFunction,Soldermask,Bot*
%FSLAX46Y46*%
G04 Gerber Fmt 4.6, Leading zero omitted, Abs format (unit mm)*
G04 Created by KiCad (PCBNEW 4.0.6) date 12/19/17 11:22:06*
%MOMM*%
%LPD*%
G01*
G04 APERTURE LIST*
%ADD10C,0.100000*%
%ADD11R,1.600000X1.600000*%
%ADD12O,1.600000X1.600000*%
%ADD13C,2.400000*%
%ADD14O,2.400000X2.400000*%
%ADD15O,1.998980X1.998980*%
%ADD16R,1.998980X1.998980*%
%ADD17C,1.400000*%
%ADD18O,1.400000X1.400000*%
%ADD19R,2.000000X2.600000*%
%ADD20O,2.000000X2.600000*%
%ADD21C,2.000000*%
%ADD22C,1.600000*%
%ADD23R,3.500000X3.500000*%
%ADD24C,4.500880*%
%ADD25R,2.400000X2.400000*%
G04 APERTURE END LIST*
D10*
X65000000Y-117500000D02*
X65000000Y-118000000D01*
X65000000Y-57500000D02*
X65000000Y-117500000D01*
X69500000Y-53000000D02*
G75*
G03X65000000Y-57500000I0J-4500000D01*
G01*
X65000000Y-118000000D02*
G75*
G03X69500000Y-122500000I4500000J0D01*
G01*
X177500000Y-122500000D02*
X69500000Y-122500000D01*
X177500000Y-53000000D02*
X69500000Y-53000000D01*
X177500000Y-122500000D02*
G75*
G03X182000000Y-118000000I0J4500000D01*
G01*
X182000000Y-57500000D02*
X182000000Y-118000000D01*
X182000000Y-57500000D02*
G75*
G03X177500000Y-53000000I-4500000J0D01*
G01*
D11*
X152000000Y-91000000D03*
D12*
X169780000Y-83380000D03*
X154540000Y-91000000D03*
X167240000Y-83380000D03*
X157080000Y-91000000D03*
X164700000Y-83380000D03*
X159620000Y-91000000D03*
X162160000Y-83380000D03*
X162160000Y-91000000D03*
X159620000Y-83380000D03*
X164700000Y-91000000D03*
X157080000Y-83380000D03*
X167240000Y-91000000D03*
X154540000Y-83380000D03*
X169780000Y-91000000D03*
X152000000Y-83380000D03*
D13*
X105600000Y-84290000D03*
D14*
X105600000Y-89370000D03*
D11*
X127200000Y-79490000D03*
D12*
X147520000Y-71870000D03*
X129740000Y-79490000D03*
X144980000Y-71870000D03*
X132280000Y-79490000D03*
X142440000Y-71870000D03*
X134820000Y-79490000D03*
X139900000Y-71870000D03*
X137360000Y-79490000D03*
X137360000Y-71870000D03*
X139900000Y-79490000D03*
X134820000Y-71870000D03*
X142440000Y-79490000D03*
X132280000Y-71870000D03*
X144980000Y-79490000D03*
X129740000Y-71870000D03*
X147520000Y-79490000D03*
X127200000Y-71870000D03*
D11*
X154500000Y-79500000D03*
D12*
X174820000Y-71880000D03*
X157040000Y-79500000D03*
X172280000Y-71880000D03*
X159580000Y-79500000D03*
X169740000Y-71880000D03*
X162120000Y-79500000D03*
X167200000Y-71880000D03*
X164660000Y-79500000D03*
X164660000Y-71880000D03*
X167200000Y-79500000D03*
X162120000Y-71880000D03*
X169740000Y-79500000D03*
X159580000Y-71880000D03*
X172280000Y-79500000D03*
X157040000Y-71880000D03*
X174820000Y-79500000D03*
X154500000Y-71880000D03*
D11*
X124660000Y-90920000D03*
D12*
X142440000Y-83300000D03*
X127200000Y-90920000D03*
X139900000Y-83300000D03*
X129740000Y-90920000D03*
X137360000Y-83300000D03*
X132280000Y-90920000D03*
X134820000Y-83300000D03*
X134820000Y-90920000D03*
X132280000Y-83300000D03*
X137360000Y-90920000D03*
X129740000Y-83300000D03*
X139900000Y-90920000D03*
X127200000Y-83300000D03*
X142440000Y-90920000D03*
X124660000Y-83300000D03*
D11*
X74270000Y-105880000D03*
D12*
X94590000Y-98260000D03*
X76810000Y-105880000D03*
X92050000Y-98260000D03*
X79350000Y-105880000D03*
X89510000Y-98260000D03*
X81890000Y-105880000D03*
X86970000Y-98260000D03*
X84430000Y-105880000D03*
X84430000Y-98260000D03*
X86970000Y-105880000D03*
X81890000Y-98260000D03*
X89510000Y-105880000D03*
X79350000Y-98260000D03*
X92050000Y-105880000D03*
X76810000Y-98260000D03*
X94590000Y-105880000D03*
X74270000Y-98260000D03*
D11*
X100520000Y-105880000D03*
D12*
X120840000Y-98260000D03*
X103060000Y-105880000D03*
X118300000Y-98260000D03*
X105600000Y-105880000D03*
X115760000Y-98260000D03*
X108140000Y-105880000D03*
X113220000Y-98260000D03*
X110680000Y-105880000D03*
X110680000Y-98260000D03*
X113220000Y-105880000D03*
X108140000Y-98260000D03*
X115760000Y-105880000D03*
X105600000Y-98260000D03*
X118300000Y-105880000D03*
X103060000Y-98260000D03*
X120840000Y-105880000D03*
X100520000Y-98260000D03*
D15*
X108140000Y-114770000D03*
D16*
X100520000Y-114770000D03*
D15*
X103060000Y-114770000D03*
X105600000Y-114770000D03*
X110680000Y-114770000D03*
X113220000Y-114770000D03*
X115760000Y-114770000D03*
X118300000Y-114770000D03*
X81890000Y-114770000D03*
D16*
X74270000Y-114770000D03*
D15*
X76810000Y-114770000D03*
X79350000Y-114770000D03*
X84430000Y-114770000D03*
X86970000Y-114770000D03*
X89510000Y-114770000D03*
X92050000Y-114770000D03*
X110680000Y-62700000D03*
D16*
X118300000Y-62700000D03*
D15*
X115760000Y-62700000D03*
X113220000Y-62700000D03*
X108140000Y-62700000D03*
X105600000Y-62700000D03*
X103060000Y-62700000D03*
X100520000Y-62700000D03*
X84430000Y-62700000D03*
D16*
X92050000Y-62700000D03*
D15*
X89510000Y-62700000D03*
X86970000Y-62700000D03*
X81890000Y-62700000D03*
X79350000Y-62700000D03*
X76810000Y-62700000D03*
X74270000Y-62700000D03*
X164880000Y-62700000D03*
D16*
X172500000Y-62700000D03*
D15*
X169960000Y-62700000D03*
X167420000Y-62700000D03*
X162340000Y-62700000D03*
X159800000Y-62700000D03*
X157260000Y-62700000D03*
X154720000Y-62700000D03*
X137380000Y-62700000D03*
D16*
X145000000Y-62700000D03*
D15*
X142460000Y-62700000D03*
X139920000Y-62700000D03*
X134840000Y-62700000D03*
X132300000Y-62700000D03*
X129760000Y-62700000D03*
X127220000Y-62700000D03*
X173000000Y-94880000D03*
D16*
X173000000Y-102500000D03*
D15*
X173000000Y-99960000D03*
X173000000Y-97420000D03*
D17*
X126000000Y-113500000D03*
D18*
X133620000Y-113500000D03*
D17*
X133650000Y-116700000D03*
D18*
X126030000Y-116700000D03*
D17*
X126000000Y-120000000D03*
D18*
X133620000Y-120000000D03*
D17*
X161000000Y-113500000D03*
D18*
X153380000Y-113500000D03*
D17*
X153350000Y-116725000D03*
D18*
X160970000Y-116725000D03*
D17*
X161000000Y-120000000D03*
D18*
X153380000Y-120000000D03*
D19*
X127000000Y-106500000D03*
D20*
X129540000Y-106500000D03*
X132080000Y-106500000D03*
D19*
X160000000Y-106500000D03*
D20*
X157460000Y-106500000D03*
X154920000Y-106500000D03*
D21*
X132000000Y-97000000D03*
X127000000Y-97000000D03*
X137000000Y-97000000D03*
X142000000Y-97000000D03*
D11*
X159000000Y-97000000D03*
D22*
X159000000Y-99000000D03*
D11*
X149500000Y-99000000D03*
D22*
X149500000Y-97000000D03*
D13*
X100500000Y-84300000D03*
D14*
X100500000Y-89380000D03*
D13*
X103060000Y-71590000D03*
D14*
X103060000Y-76670000D03*
D13*
X108140000Y-71590000D03*
D14*
X108140000Y-76670000D03*
D13*
X110680000Y-84290000D03*
D14*
X110680000Y-89370000D03*
D13*
X113220000Y-71590000D03*
D14*
X113220000Y-76670000D03*
D13*
X115760000Y-84290000D03*
D14*
X115760000Y-89370000D03*
D13*
X118300000Y-71590000D03*
D14*
X118300000Y-76670000D03*
D13*
X74270000Y-84290000D03*
D14*
X74270000Y-89370000D03*
D13*
X76810000Y-71590000D03*
D14*
X76810000Y-76670000D03*
D13*
X79350000Y-84290000D03*
D14*
X79350000Y-89370000D03*
D13*
X81890000Y-71590000D03*
D14*
X81890000Y-76670000D03*
D13*
X84430000Y-84290000D03*
D14*
X84430000Y-89370000D03*
D13*
X86970000Y-71590000D03*
D14*
X86970000Y-76670000D03*
D13*
X89510000Y-84290000D03*
D14*
X89510000Y-89370000D03*
D13*
X92050000Y-71590000D03*
D14*
X92050000Y-76670000D03*
D23*
X143000000Y-108000000D03*
X143000000Y-113000000D03*
X148000000Y-110500000D03*
D24*
X69500000Y-57500000D03*
X177500000Y-57500000D03*
X177500000Y-118000000D03*
X69500000Y-118000000D03*
D13*
X70550000Y-74850000D03*
D25*
X70550000Y-71350000D03*
M02*
